<?xml version="1.0" encoding="UTF-8"?>
<svg version="1.1" xmlns="http://www.w3.org/2000/svg" width="245" height="233">
<path d="M0 0 C0 0.66 0 1.32 0 2 C0.8971875 2.433125 0.8971875 2.433125 1.8125 2.875 C4 4 4 4 7 6 C7 7.32 7 8.64 7 10 C8.32 10.33 9.64 10.66 11 11 C11 11.66 11 12.32 11 13 C11.8971875 13.433125 11.8971875 13.433125 12.8125 13.875 C15 15 15 15 18 17 C18 17.66 18 18.32 18 19 C18.66 19 19.32 19 20 19 C20 19.99 20 20.98 20 22 C20.66 22 21.32 22 22 22 C22 22.66 22 23.32 22 24 C23.32 24.66 24.64 25.32 26 26 C26.33 21.71 26.66 17.42 27 13 C81.12 13 135.24 13 191 13 C191 79.99 191 146.98 191 216 C164.31125 216.020625 137.6225 216.04125 110.125 216.0625 C97.46600342 216.07615601 97.46600342 216.07615601 84.55126953 216.09008789 C74.27709961 216.09460449 74.27709961 216.09460449 69.47335815 216.09544373 C66.10510607 216.09637858 62.7368696 216.10013876 59.36862183 216.10557556 C55.0786975 216.11240888 50.78879606 216.11449595 46.4988668 216.11307228 C44.9204145 216.11337019 43.34196144 216.11536829 41.7635138 216.11921513 C39.63919829 216.12415381 37.5149729 216.12300291 35.39065552 216.12025452 C34.1978554 216.12117631 33.00505527 216.1220981 31.7761097 216.12304783 C29 216 29 216 27 215 C26.67 161.21 26.34 107.42 26 52 C25.01 51.505 25.01 51.505 24 51 C24 50.34 24 49.68 24 49 C23.34 49 22.68 49 22 49 C22 48.34 22 47.68 22 47 C20.68 46.67 19.36 46.34 18 46 C18 45.34 18 44.68 18 44 C17.34 44 16.68 44 16 44 C15.67 43.01 15.34 42.02 15 41 C14.01 40.505 14.01 40.505 13 40 C13 39.34 13 38.68 13 38 C12.34 38 11.68 38 11 38 C11 37.34 11 36.68 11 36 C9.68 35.67 8.36 35.34 7 35 C7 34.34 7 33.68 7 33 C5.515 32.505 5.515 32.505 4 32 C4 31.34 4 30.68 4 30 C3.34 30 2.68 30 2 30 C2 29.34 2 28.68 2 28 C0.68 27.67 -0.64 27.34 -2 27 C-2 26.34 -2 25.68 -2 25 C-2.598125 24.896875 -3.19625 24.79375 -3.8125 24.6875 C-6.36005783 23.88683897 -7.41524098 23.13942468 -9 21 C-9 19.68 -9 18.36 -9 17 C-10.32 16.67 -11.64 16.34 -13 16 C-13 15.34 -13 14.68 -13 14 C-14.32 13.67 -15.64 13.34 -17 13 C-17.6875 10.6875 -17.6875 10.6875 -18 8 C-16.6875 6.1875 -16.6875 6.1875 -15 5 C-14.34 5 -13.68 5 -13 5 C-13 4.34 -13 3.68 -13 3 C-11.68 2.67 -10.36 2.34 -9 2 C-9 1.34 -9 0.68 -9 0 C-5.93109813 -1.53445094 -3.29905734 -0.54984289 0 0 Z " fill="#FAFAF9" transform="translate(22,6)"/>
<path d="M0 0 C0 0.66 0 1.32 0 2 C0.8971875 2.433125 0.8971875 2.433125 1.8125 2.875 C4 4 4 4 7 6 C7 7.32 7 8.64 7 10 C8.32 10.33 9.64 10.66 11 11 C11 11.66 11 12.32 11 13 C11.8971875 13.433125 11.8971875 13.433125 12.8125 13.875 C15 15 15 15 18 17 C18 17.66 18 18.32 18 19 C18.66 19 19.32 19 20 19 C20 19.99 20 20.98 20 22 C20.66 22 21.32 22 22 22 C22 22.66 22 23.32 22 24 C22.639375 24.268125 23.27875 24.53625 23.9375 24.8125 C26 26 26 26 27 29 C29.01508358 29.73323796 29.01508358 29.73323796 31 30 C31 30.66 31 31.32 31 32 C31.99 32.33 32.98 32.66 34 33 C34 33.66 34 34.32 34 35 C34.66 35 35.32 35 36 35 C36.495 36.98 36.495 36.98 37 39 C37.66 39 38.32 39 39 39 C39 39.99 39 40.98 39 42 C39.639375 42.268125 40.27875 42.53625 40.9375 42.8125 C43 44 43 44 44 47 C46.01508358 47.73323796 46.01508358 47.73323796 48 48 C48 48.66 48 49.32 48 50 C48.57234375 50.27972656 49.1446875 50.55945312 49.734375 50.84765625 C51.9551836 51.97720545 54.10836757 53.1644185 56.25 54.4375 C57.30960938 55.05431641 57.30960938 55.05431641 58.390625 55.68359375 C58.92171875 56.11800781 59.4528125 56.55242188 60 57 C60 57.99 60 58.98 60 60 C60.99 59.67 61.98 59.34 63 59 C65.22818441 58.93062938 67.45834524 58.91542916 69.6875 58.9375 C71.45673828 58.95103516 71.45673828 58.95103516 73.26171875 58.96484375 C74.16535156 58.97644531 75.06898437 58.98804688 76 59 C76 58.34 76 57.68 76 57 C77.8253125 56.938125 77.8253125 56.938125 79.6875 56.875 C80.37199219 56.85179687 81.05648437 56.82859375 81.76171875 56.8046875 C84 57 84 57 86.19433594 58.00219727 C89.65420392 59.23266024 92.4597067 59.20969838 96.12890625 59.16015625 C96.80042221 59.15495468 97.47193817 59.14975311 98.1638031 59.14439392 C100.29692885 59.1266769 102.4295607 59.09552211 104.5625 59.0625 C106.69896082 59.0348038 108.83535026 59.01009696 110.97190857 58.99131775 C112.90785778 58.97353834 114.84371141 58.94612689 116.77954102 58.91821289 C119.42256446 58.98533539 121.50182317 59.20344026 124 60 C124 60.66 124 61.32 124 62 C125.18263428 61.75552124 125.18263428 61.75552124 126.38916016 61.50610352 C130.87975543 60.87669148 135.24572696 60.87601955 139.7734375 60.90234375 C140.6971817 60.9037587 141.6209259 60.90517365 142.57266235 60.90663147 C145.50680862 60.91220391 148.44087701 60.92475131 151.375 60.9375 C153.37109264 60.94251856 155.36718649 60.94708085 157.36328125 60.95117188 C162.24221725 60.96216431 167.12109545 60.9794099 172 61 C172 61.66 172 62.32 172 63 C166.35177849 63.80511842 160.89230157 64.14737522 155.19140625 64.1328125 C154.35927109 64.13422241 153.52713593 64.13563232 152.66978455 64.13708496 C149.96731271 64.13921359 147.26495993 64.13293087 144.5625 64.125 C143.63791992 64.1234491 142.71333984 64.12189819 141.76074219 64.12030029 C129.00406262 64.09527317 116.25231849 63.96346671 103.5 63.625 C102.82711945 63.60971252 102.15423889 63.59442505 101.46096802 63.57867432 C94.46544149 63.41270255 87.79442129 63.02628245 80.97070312 61.41552734 C78.84642965 60.89684203 78.84642965 60.89684203 76 61 C76 61.66 76 62.32 76 63 C72.37 63.33 68.74 63.66 65 64 C66.155 64.94875 67.31 65.8975 68.5 66.875 C70.46875 68.4921875 70.46875 68.4921875 72 70 C72 70.66 72 71.32 72 72 C86.7783504 73.42467088 101.60815486 73.11104273 116.4375 73.0625 C119.11523353 73.05690008 121.7929665 73.05291428 124.47070312 73.04882812 C130.98048889 73.03789656 137.49024011 73.0212336 144 73 C144 73.66 144 74.32 144 75 C151.59 75 159.18 75 167 75 C167 75.66 167 76.32 167 77 C153.49747435 80.21610252 137.73576089 77.71413801 124 77 C124 76.34 124 75.68 124 75 C122.8759375 75.32742187 121.751875 75.65484375 120.59375 75.9921875 C115.85269459 77.17745135 111.36236942 77.22794919 106.5 77.125 C105.67757812 77.11597656 104.85515625 77.10695313 104.0078125 77.09765625 C102.00507917 77.07436865 100.00249846 77.03850959 98 77 C98 76.34 98 75.68 98 75 C96.02 75 94.04 75 92 75 C92 75.66 92 76.32 92 77 C87.71 77 83.42 77 79 77 C79 77.99 79 78.98 79 80 C79.53625 80.2475 80.0725 80.495 80.625 80.75 C83.5823982 82.30652537 86.29724051 84.03435673 89 86 C89 86.66 89 87.32 89 88 C91.97 88 94.94 88 98 88 C98 87.34 98 86.68 98 86 C101.17393689 84.41303156 104.58174205 84.8568553 108.0625 84.875 C108.80822266 84.87113281 109.55394531 84.86726563 110.32226562 84.86328125 C115.87336499 84.87336499 115.87336499 84.87336499 117 86 C119.04770494 86.1462781 121.10012639 86.22742886 123.15234375 86.28125 C125.02889648 86.33732422 125.02889648 86.33732422 126.94335938 86.39453125 C128.26142578 86.42933594 129.57949219 86.46414062 130.9375 86.5 C133.53006414 86.56866035 136.1225253 86.64136736 138.71484375 86.71875 C140.44915649 86.76418945 140.44915649 86.76418945 142.21850586 86.81054688 C145 87 145 87 147 88 C149.87910588 88.23274209 152.74146495 88.41972757 155.625 88.5625 C156.82769531 88.62727539 156.82769531 88.62727539 158.0546875 88.69335938 C160.0362511 88.79951457 162.01810271 88.90026855 164 89 C164 89.66 164 90.32 164 91 C157.86190964 91.04959611 151.72393707 91.08581249 145.58569336 91.10986328 C143.49940966 91.11989427 141.41313992 91.13352226 139.3269043 91.15087891 C136.32076562 91.17525494 133.31481355 91.18651236 130.30859375 91.1953125 C129.38227646 91.20563507 128.45595917 91.21595764 127.50157166 91.22659302 C122.27577548 91.22748969 118.02438144 90.59781571 113 89 C110.60168959 88.7334899 110.60168959 88.7334899 108.37890625 88.8046875 C107.58935547 88.81113281 106.79980469 88.81757812 105.98632812 88.82421875 C105.18646484 88.84097656 104.38660156 88.85773438 103.5625 88.875 C102.73556641 88.88402344 101.90863281 88.89304687 101.05664062 88.90234375 C99.03763292 88.92568488 97.01877644 88.96154712 95 89 C94.505 90.98 94.505 90.98 94 93 C94.61875 93.061875 95.2375 93.12375 95.875 93.1875 C96.57625 93.455625 97.2775 93.72375 98 94 C98.68132451 95.66072849 99.34742127 97.327767 100 99 C101.91666667 100.16666667 101.91666667 100.16666667 104 101 C104.44988281 101.50789063 104.89976563 102.01578125 105.36328125 102.5390625 C107.45688047 104.40781216 108.48415203 104.34670797 111.25 104.25 C111.97703125 104.23453125 112.7040625 104.2190625 113.453125 104.203125 C115.40146214 104.04773615 117.34201604 103.79181135 119.2734375 103.4921875 C123.34730906 102.95412899 127.27389965 102.85234199 131.375 102.875 C132.45974609 102.86919922 132.45974609 102.86919922 133.56640625 102.86328125 C138.87323778 102.87323778 138.87323778 102.87323778 140 104 C142.44608998 104.15980437 144.86731058 104.25929447 147.31640625 104.31640625 C148.04746078 104.33718735 148.77851532 104.35796844 149.53172302 104.37937927 C151.87521656 104.44495024 154.21882539 104.50379432 156.5625 104.5625 C158.14779855 104.60567808 159.73308529 104.64929213 161.31835938 104.69335938 C165.21212037 104.8006392 169.10599772 104.9018849 173 105 C173 105.66 173 106.32 173 107 C172.45479706 106.99777939 171.90959412 106.99555878 171.34786987 106.99327087 C165.60382756 106.97091456 159.85979787 106.95596876 154.11572266 106.94506836 C151.98030087 106.94008131 149.84488242 106.93328928 147.70947266 106.92456055 C136.09389217 106.87831585 124.57262742 106.87273001 113 108 C113 108.66 113 109.32 113 110 C113.9590625 110.37125 113.9590625 110.37125 114.9375 110.75 C117.544301 112.32987939 117.29195078 113.16780311 118 116 C121.7971347 118.86735254 126.39821751 118.25140809 130.921875 118.1953125 C131.78186096 118.1924826 132.64184692 118.18965271 133.52789307 118.18673706 C136.26873821 118.1755615 139.00925398 118.15046179 141.75 118.125 C143.61067236 118.1149668 145.47134985 118.10584155 147.33203125 118.09765625 C151.88814732 118.07563076 156.44401786 118.04111897 161 118 C161 118.66 161 119.32 161 120 C158.02650724 120.86353256 155.42322885 121.10724143 152.33203125 121.0625 C151.43806641 121.05476563 150.54410156 121.04703125 149.62304688 121.0390625 C147.76887642 121.01329224 145.91470963 120.98725635 144.06054688 120.9609375 C138.27951918 120.91127942 132.73424804 121.25027196 127 122 C127 122.66 127 123.32 127 124 C130.93162424 126.51919087 135.15780333 126.62804202 139.6875 127.0625 C147.87671077 127.87671077 147.87671077 127.87671077 149 129 C150.77869726 129.15764405 152.56318476 129.25100677 154.34765625 129.31640625 C155.42724609 129.35830078 156.50683594 129.40019531 157.61914062 129.44335938 C158.75544922 129.48267578 159.89175781 129.52199219 161.0625 129.5625 C162.20267578 129.60568359 163.34285156 129.64886719 164.51757812 129.69335938 C167.34492195 129.79982839 170.17235738 129.90184207 173 130 C173 130.66 173 131.32 173 132 C161.78 132 150.56 132 139 132 C141.82264253 136.70440422 143.54476403 138.98732712 148 142 C150.80220057 142.49800919 153.01384743 142.72291765 155.8046875 142.70703125 C156.8906572 142.72971321 156.8906572 142.72971321 157.99856567 142.75285339 C160.29103195 142.79554044 162.58217686 142.80454885 164.875 142.8125 C166.43753466 142.83565946 168.00003824 142.86102782 169.5625 142.88867188 C173.3751158 142.95133504 177.18691511 142.98381866 181 143 C181 143.66 181 144.32 181 145 C171.76 145.33 162.52 145.66 153 146 C154.98 148.475 154.98 148.475 157 151 C157.75 154.3125 157.75 154.3125 158 157 C158.74765625 156.98839844 159.4953125 156.97679687 160.265625 156.96484375 C161.25046875 156.95582031 162.2353125 156.94679687 163.25 156.9375 C164.71179688 156.92009766 164.71179688 156.92009766 166.203125 156.90234375 C168.65758678 156.98804423 170.66168914 157.29293934 173 158 C173 158.66 173 159.32 173 160 C169.37 160 165.74 160 162 160 C162 161.32 162 162.64 162 164 C162.66 164 163.32 164 164 164 C165.4606285 166.64738916 166 167.89448334 166 171 C164.02 170.67 162.04 170.34 160 170 C160 169.34 160 168.68 160 168 C158.35 167.67 156.7 167.34 155 167 C155 166.34 155 165.68 155 165 C153.68 165 152.36 165 151 165 C151 164.34 151 163.68 151 163 C150.39003174 162.98018066 149.78006348 162.96036133 149.15161133 162.93994141 C146.37149467 162.84432124 143.59209154 162.73479295 140.8125 162.625 C139.85279297 162.5940625 138.89308594 162.563125 137.90429688 162.53125 C136.50727539 162.47324219 136.50727539 162.47324219 135.08203125 162.4140625 C134.22843018 162.3826416 133.3748291 162.3512207 132.49536133 162.31884766 C129.73258816 161.96583114 127.55611266 161.08089171 125 160 C116.70779835 158.9812438 109.22164427 160.48679343 101.2668457 162.56787109 C95.12437106 164.12081863 89.33320461 164.43929743 83 164 C83 163.34 83 162.68 83 162 C81.700625 161.855625 80.40125 161.71125 79.0625 161.5625 C75.125 161.125 75.125 161.125 74 160 C71.4473569 159.89884631 68.92747177 159.86135042 66.375 159.875 C65.67503906 159.87113281 64.97507812 159.86726562 64.25390625 159.86328125 C57.1807275 159.87640403 50.7930153 161.00205432 44 163 C43.34 163 42.68 163 42 163 C42.33 162.01 42.66 161.02 43 160 C45.97 159.67 48.94 159.34 52 159 C52 158.34 52 157.68 52 157 C53.299375 156.7834375 53.299375 156.7834375 54.625 156.5625 C56.69279112 156.21786815 58.75689527 155.84862095 60.8125 155.4375 C65.95677519 154.73142301 71.03755276 154.34585092 76 156 C76 156.66 76 157.32 76 158 C77.32 158 78.64 158 80 158 C80 158.66 80 159.32 80 160 C83.68774615 159.86001598 87.37512663 159.71195796 91.0625 159.5625 C92.10083984 159.52318359 93.13917969 159.48386719 94.20898438 159.44335938 C103.12649433 159.76247659 103.12649433 159.76247659 111 157 C113.51136104 156.90024968 115.98903415 156.86117817 118.5 156.875 C119.55380859 156.86919922 119.55380859 156.86919922 120.62890625 156.86328125 C125.87338622 156.87338622 125.87338622 156.87338622 127 158 C129.34987262 158.23527773 131.70556039 158.41386417 134.0625 158.5625 C135.35285156 158.64628906 136.64320313 158.73007813 137.97265625 158.81640625 C138.97167969 158.87699219 139.97070312 158.93757812 141 159 C140.44570312 158.61328125 139.89140625 158.2265625 139.3203125 157.828125 C138.23363281 157.04695313 138.23363281 157.04695313 137.125 156.25 C136.04605469 155.48429687 136.04605469 155.48429687 134.9453125 154.703125 C132.89938476 152.91191116 132.13340582 151.43018545 131 149 C130.34 148.67 129.68 148.34 129 148 C129 147.34 129 146.68 129 146 C122.38190423 143.53745274 115.99560484 143.81064528 109 144 C109 144.66 109 145.32 109 146 C107.78268188 146.07516846 107.78268188 146.07516846 106.54077148 146.15185547 C102.83913019 146.38494233 99.1383619 146.62986135 95.4375 146.875 C94.16068359 146.95363281 92.88386719 147.03226563 91.56835938 147.11328125 C84.25614345 147.49500359 84.25614345 147.49500359 77.140625 149.0546875 C73.12499047 150.26337351 69.47857975 150.29389197 65.3125 150.25 C64.56677734 150.25773438 63.82105469 150.26546875 63.05273438 150.2734375 C57.48751714 150.25357945 57.48751714 150.25357945 55.04272461 148.98193359 C52.61011942 147.81258519 51.12956143 147.8425972 48.453125 148.0234375 C47.60878906 148.075 46.76445313 148.1265625 45.89453125 148.1796875 C45.02183594 148.24414062 44.14914063 148.30859375 43.25 148.375 C42.36183594 148.43171875 41.47367188 148.4884375 40.55859375 148.546875 C38.37153668 148.68797546 36.1856931 148.8393433 34 149 C34 148.01 34 147.02 34 146 C39.15946865 144.2958322 43.4425333 143.77774395 48.9375 143.875 C49.62134766 143.88402344 50.30519531 143.89304688 51.00976562 143.90234375 C52.67333287 143.92561042 54.33671631 143.96146833 56 144 C56 144.66 56 145.32 56 146 C58.14553464 146.05493545 60.29149766 146.09320737 62.4375 146.125 C63.63246094 146.14820313 64.82742187 146.17140625 66.05859375 146.1953125 C69.05448049 146.04685429 71.12463137 145.77160268 73.9375 145.03125 C80.99908481 143.33055418 88.33582357 143.52816502 95.5625 143.375 C97.06317176 143.33674154 98.5638234 143.29768549 100.06445312 143.2578125 C103.70944944 143.16267804 107.35459954 143.07834092 111 143 C111 142.34 111 141.68 111 141 C114.3 140.67 117.6 140.34 121 140 C120.01 139.34 119.02 138.68 118 138 C118 137.34 118 136.68 118 136 C117.360625 135.690625 116.72125 135.38125 116.0625 135.0625 C114 134 114 134 113 133 C111.35659133 132.90145345 109.7088539 132.87027589 108.0625 132.875 C107.16660156 132.87242187 106.27070313 132.86984375 105.34765625 132.8671875 C102.97844445 132.84578587 102.97844445 132.84578587 101 134 C99.58370869 134.07203007 98.16405465 134.08386064 96.74609375 134.0625 C95.89080078 134.05476562 95.03550781 134.04703125 94.15429688 134.0390625 C92.37043701 134.0134139 90.58658258 133.98738447 88.80273438 133.9609375 C83.10924838 133.90998908 77.64800152 134.2660465 72 135 C72 134.01 72 133.02 72 132 C77.52223037 129.66084926 82.4997913 129.80096346 88.375 129.9375 C94.70669707 130.05891749 100.73036143 129.94705313 107 129 C107.22958315 126.66695339 107.22958315 126.66695339 104.625 124.5 C103.75875 123.675 102.8925 122.85 102 122 C101.34 121.34 100.68 120.68 100 120 C98.08819451 119.71994942 98.08819451 119.71994942 96 119.8125 C95.29875 119.81894531 94.5975 119.82539062 93.875 119.83203125 C91.90943627 119.89293867 91.90943627 119.89293867 90 121 C87.52821126 121.12445775 85.09688831 121.1851592 82.625 121.1875 C81.95210938 121.19974609 81.27921875 121.21199219 80.5859375 121.22460938 C75.47844117 121.23969056 75.47844117 121.23969056 73.01171875 120.00390625 C69.86710589 118.43465284 66.62457246 118.71191609 63.1875 118.75 C62.50107422 118.74226563 61.81464844 118.73453125 61.10742188 118.7265625 C56.42198713 118.74429357 52.5025285 119.5915736 48 121 C45.0625 121.125 45.0625 121.125 43 121 C42.67 120.01 42.34 119.02 42 118 C43.21558594 117.79503906 44.43117187 117.59007813 45.68359375 117.37890625 C47.26826514 117.10698039 48.85289863 116.83483357 50.4375 116.5625 C51.23994141 116.42779297 52.04238281 116.29308594 52.86914062 116.15429688 C56.75471303 115.79732776 56.75471303 115.79732776 60 114 C61.97619447 113.87485072 63.95738173 113.8242724 65.9375 113.8125 C67.01902344 113.79832031 68.10054688 113.78414063 69.21484375 113.76953125 C72 114 72 114 74 116 C80.62186858 118.56882833 86.2875988 117.82173728 93 116 C93 114.35 93 112.7 93 111 C92.38125 110.690625 91.7625 110.38125 91.125 110.0625 C89.75 109.375 88.375 108.6875 87 108 C85.46774311 107.92698323 83.93228763 107.91637178 82.3984375 107.9375 C81.44388672 107.94587891 80.48933594 107.95425781 79.50585938 107.96289062 C78.47267578 107.97513672 77.43949219 107.98738281 76.375 108 C63.89309699 108.08377116 51.46413416 107.62788243 39 107 C39 106.01 39 105.02 39 104 C59.97081617 103.80844533 59.97081617 103.80844533 69.46875 104.77734375 C73.32233947 105.1163169 77.13405219 105.06443246 81 105 C80.81171228 102.55519921 80.81171228 102.55519921 80 100 C78.18398635 98.79996657 78.18398635 98.79996657 76 98 C73.01922086 96.04120228 72.15752615 95.47257844 71 92 C69.86820312 91.93941406 68.73640625 91.87882812 67.5703125 91.81640625 C66.08852855 91.73200083 64.6067584 91.64735283 63.125 91.5625 C62.37863281 91.52318359 61.63226563 91.48386719 60.86328125 91.44335938 C55.2265625 91.11328125 55.2265625 91.11328125 53 90 C50.9625237 89.77141886 48.91959697 89.58975722 46.875 89.4375 C45.23144531 89.31181641 45.23144531 89.31181641 43.5546875 89.18359375 C42.71164063 89.12300781 41.86859375 89.06242187 41 89 C41.639375 88.896875 42.27875 88.79375 42.9375 88.6875 C43.618125 88.460625 44.29875 88.23375 45 88 C45.495 86.515 45.495 86.515 46 85 C51.445 85.99 51.445 85.99 57 87 C57 87.66 57 88.32 57 89 C60.465 88.505 60.465 88.505 64 88 C63.505 87.54625 63.01 87.0925 62.5 86.625 C61 85 61 85 61 83 C60.401875 82.7525 59.80375 82.505 59.1875 82.25 C56.68373081 80.81927475 55.51927612 79.4308418 54 77 C54 76.34 54 75.68 54 75 C52.515 75.495 52.515 75.495 51 76 C46.91405167 77.1865126 43.23657606 77.14865179 39 77 C39.495 75.515 39.495 75.515 40 74 C42.06640625 73.26953125 42.06640625 73.26953125 44.5625 72.8125 C45.38878906 72.65394531 46.21507813 72.49539062 47.06640625 72.33203125 C48.02353516 72.16767578 48.02353516 72.16767578 49 72 C47.9171875 71.4121875 47.9171875 71.4121875 46.8125 70.8125 C43.77198671 68.8530581 41.51625635 66.58426328 39 64 C38.01 63.505 38.01 63.505 37 63 C37 62.34 37 61.68 37 61 C36.34 61 35.68 61 35 61 C35 60.01 35 59.02 35 58 C34.34 58 33.68 58 33 58 C32.5875 57.401875 32.175 56.80375 31.75 56.1875 C29.54352811 53.42941013 27.19350539 52.41933573 24 51 C24 50.34 24 49.68 24 49 C23.34 49 22.68 49 22 49 C22 48.34 22 47.68 22 47 C20.68 46.67 19.36 46.34 18 46 C18 45.34 18 44.68 18 44 C17.34 44 16.68 44 16 44 C15.67 43.01 15.34 42.02 15 41 C14.01 40.505 14.01 40.505 13 40 C13 39.34 13 38.68 13 38 C12.34 38 11.68 38 11 38 C11 37.34 11 36.68 11 36 C9.68 35.67 8.36 35.34 7 35 C7 34.34 7 33.68 7 33 C5.515 32.505 5.515 32.505 4 32 C4 31.34 4 30.68 4 30 C3.34 30 2.68 30 2 30 C2 29.34 2 28.68 2 28 C0.68 27.67 -0.64 27.34 -2 27 C-2 26.34 -2 25.68 -2 25 C-2.598125 24.896875 -3.19625 24.79375 -3.8125 24.6875 C-6.36005783 23.88683897 -7.41524098 23.13942468 -9 21 C-9 19.68 -9 18.36 -9 17 C-10.32 16.67 -11.64 16.34 -13 16 C-13 15.34 -13 14.68 -13 14 C-14.32 13.67 -15.64 13.34 -17 13 C-17.6875 10.6875 -17.6875 10.6875 -18 8 C-16.6875 6.1875 -16.6875 6.1875 -15 5 C-14.34 5 -13.68 5 -13 5 C-13 4.34 -13 3.68 -13 3 C-11.68 2.67 -10.36 2.34 -9 2 C-9 1.34 -9 0.68 -9 0 C-5.93109813 -1.53445094 -3.29905734 -0.54984289 0 0 Z " fill="#D6C285" transform="translate(22,6)"/>
<path d="M0 0 C0.33 1.98 0.66 3.96 1 6 C0.34 6 -0.32 6 -1 6 C-1.33 7.98 -1.66 9.96 -2 12 C-1.401875 12.0825 -0.80375 12.165 -0.1875 12.25 C2 13 2 13 3.3125 15 C4.9770579 17.39241247 4.9770579 17.39241247 8.6875 17.75 C9.780625 17.8325 10.87375 17.915 12 18 C11.67 19.65 11.34 21.3 11 23 C11.61875 23.2475 12.2375 23.495 12.875 23.75 C15 25 15 25 16 27.0625 C16.8295822 29.21280279 16.8295822 29.21280279 19.125 29.75 C19.74375 29.8325 20.3625 29.915 21 30 C21 30.66 21 31.32 21 32 C21.639375 32.268125 22.27875 32.53625 22.9375 32.8125 C25 34 25 34 26 37 C28.01508358 37.73323796 28.01508358 37.73323796 30 38 C30 38.66 30 39.32 30 40 C30.598125 40.0825 31.19625 40.165 31.8125 40.25 C34.65025411 41.22294427 35.49676067 42.44449313 37 45 C37 45.99 37 46.98 37 48 C37.556875 48.04125 38.11375 48.0825 38.6875 48.125 C42.17293296 49.44381247 43.72741349 52.1293644 46 55 C46.99 55.495 46.99 55.495 48 56 C48 56.66 48 57.32 48 58 C48.845625 58.165 49.69125 58.33 50.5625 58.5 C55.26587717 60.55238277 58.0673567 63.83529946 61 68 C61 68.66 61 69.32 61 70 C61.66 70 62.32 70 63 70 C63.33 70.66 63.66 71.32 64 72 C64.9590625 72.4640625 64.9590625 72.4640625 65.9375 72.9375 C68 74 68 74 70 77 C70.64066406 77.31066406 71.28132813 77.62132813 71.94140625 77.94140625 C74.44848994 79.23062765 75.3747402 80.61284069 76.9375 82.9375 C79.33139185 86.28173083 81.3504203 88.0348417 85 90 C87.8125 92.5625 87.8125 92.5625 90 95 C90 95.66 90 96.32 90 97 C90.66 97 91.32 97 92 97 C92.61875 97.78375 93.2375 98.5675 93.875 99.375 C95.88852174 101.86229156 97.08642859 102.85538266 100 104 C100 104.66 100 105.32 100 106 C100.556875 106.2475 101.11375 106.495 101.6875 106.75 C104.42410913 108.22924818 106.67650869 109.93467439 109 112 C109 112.66 109 113.32 109 114 C109.598125 114.2475 110.19625 114.495 110.8125 114.75 C113.31626919 116.18072525 114.48072388 117.5691582 116 120 C116 120.66 116 121.32 116 122 C116.66 122 117.32 122 118 122 C118 122.66 118 123.32 118 124 C119.32 124.33 120.64 124.66 122 125 C122 125.66 122 126.32 122 127 C122.99 127.33 123.98 127.66 125 128 C125 128.66 125 129.32 125 130 C125.66 130 126.32 130 127 130 C127 130.66 127 131.32 127 132 C127.556875 132.20625 128.11375 132.4125 128.6875 132.625 C130.94696811 133.96846753 131.9998656 135.05157702 133.625 137.0625 C135.67119397 140.00824713 135.67119397 140.00824713 138 141 C138 141.66 138 142.32 138 143 C138.556875 143.2475 139.11375 143.495 139.6875 143.75 C142.42410913 145.22924818 144.67650869 146.93467439 147 149 C147 149.66 147 150.32 147 151 C147.66 151 148.32 151 149 151 C150.625 153.5 150.625 153.5 152 156 C150.8125 157.5625 150.8125 157.5625 149 159 C144.29421884 158.86159467 138.97976136 156.46291715 135 154 C133.85546875 151.92578125 133.85546875 151.92578125 133 150 C132.34 149.67 131.68 149.34 131 149 C131 148.34 131 147.68 131 147 C124.38190423 144.53745274 117.99560484 144.81064528 111 145 C111 145.66 111 146.32 111 147 C109.78268188 147.07516846 109.78268188 147.07516846 108.54077148 147.15185547 C104.83913019 147.38494233 101.1383619 147.62986135 97.4375 147.875 C96.16068359 147.95363281 94.88386719 148.03226563 93.56835938 148.11328125 C86.25614345 148.49500359 86.25614345 148.49500359 79.140625 150.0546875 C75.12499047 151.26337351 71.47857975 151.29389197 67.3125 151.25 C66.56677734 151.25773438 65.82105469 151.26546875 65.05273438 151.2734375 C59.48751714 151.25357945 59.48751714 151.25357945 57.04272461 149.98193359 C54.61011942 148.81258519 53.12956143 148.8425972 50.453125 149.0234375 C49.60878906 149.075 48.76445313 149.1265625 47.89453125 149.1796875 C47.02183594 149.24414062 46.14914063 149.30859375 45.25 149.375 C44.36183594 149.43171875 43.47367188 149.4884375 42.55859375 149.546875 C40.37153668 149.68797546 38.1856931 149.8393433 36 150 C36 149.01 36 148.02 36 147 C41.15946865 145.2958322 45.4425333 144.77774395 50.9375 144.875 C51.62134766 144.88402344 52.30519531 144.89304688 53.00976562 144.90234375 C54.67333287 144.92561042 56.33671631 144.96146833 58 145 C58 145.66 58 146.32 58 147 C60.14553464 147.05493545 62.29149766 147.09320737 64.4375 147.125 C65.63246094 147.14820313 66.82742187 147.17140625 68.05859375 147.1953125 C71.05448049 147.04685429 73.12463137 146.77160268 75.9375 146.03125 C82.99908481 144.33055418 90.33582357 144.52816502 97.5625 144.375 C99.06317176 144.33674154 100.5638234 144.29768549 102.06445312 144.2578125 C105.70944944 144.16267804 109.35459954 144.07834092 113 144 C113 143.34 113 142.68 113 142 C116.3 141.67 119.6 141.34 123 141 C122.01 140.34 121.02 139.68 120 139 C120 138.34 120 137.68 120 137 C119.360625 136.690625 118.72125 136.38125 118.0625 136.0625 C116 135 116 135 115 134 C113.35659133 133.90145345 111.7088539 133.87027589 110.0625 133.875 C109.16660156 133.87242187 108.27070313 133.86984375 107.34765625 133.8671875 C104.97844445 133.84578587 104.97844445 133.84578587 103 135 C101.58370869 135.07203007 100.16405465 135.08386064 98.74609375 135.0625 C97.89080078 135.05476562 97.03550781 135.04703125 96.15429688 135.0390625 C94.37043701 135.0134139 92.58658258 134.98738447 90.80273438 134.9609375 C85.10924838 134.90998908 79.64800152 135.2660465 74 136 C74 135.01 74 134.02 74 133 C79.52223037 130.66084926 84.4997913 130.80096346 90.375 130.9375 C96.70669707 131.05891749 102.73036143 130.94705313 109 130 C109.22958315 127.66695339 109.22958315 127.66695339 106.625 125.5 C105.75875 124.675 104.8925 123.85 104 123 C103.34 122.34 102.68 121.68 102 121 C100.08819451 120.71994942 100.08819451 120.71994942 98 120.8125 C97.29875 120.81894531 96.5975 120.82539062 95.875 120.83203125 C93.90943627 120.89293867 93.90943627 120.89293867 92 122 C89.52821126 122.12445775 87.09688831 122.1851592 84.625 122.1875 C83.95210938 122.19974609 83.27921875 122.21199219 82.5859375 122.22460938 C77.47844117 122.23969056 77.47844117 122.23969056 75.01171875 121.00390625 C71.86710589 119.43465284 68.62457246 119.71191609 65.1875 119.75 C64.50107422 119.74226563 63.81464844 119.73453125 63.10742188 119.7265625 C58.42198713 119.74429357 54.5025285 120.5915736 50 122 C47.0625 122.125 47.0625 122.125 45 122 C44.67 121.01 44.34 120.02 44 119 C45.21558594 118.79503906 46.43117187 118.59007813 47.68359375 118.37890625 C49.26826514 118.10698039 50.85289863 117.83483357 52.4375 117.5625 C53.23994141 117.42779297 54.04238281 117.29308594 54.86914062 117.15429688 C58.75471303 116.79732776 58.75471303 116.79732776 62 115 C63.97619447 114.87485072 65.95738173 114.8242724 67.9375 114.8125 C69.01902344 114.79832031 70.10054688 114.78414063 71.21484375 114.76953125 C74 115 74 115 76 117 C82.62186858 119.56882833 88.2875988 118.82173728 95 117 C95 115.35 95 113.7 95 112 C94.38125 111.690625 93.7625 111.38125 93.125 111.0625 C91.75 110.375 90.375 109.6875 89 109 C87.46774311 108.92698323 85.93228763 108.91637178 84.3984375 108.9375 C83.44388672 108.94587891 82.48933594 108.95425781 81.50585938 108.96289062 C80.47267578 108.97513672 79.43949219 108.98738281 78.375 109 C65.89309699 109.08377116 53.46413416 108.62788243 41 108 C41 107.01 41 106.02 41 105 C61.97081617 104.80844533 61.97081617 104.80844533 71.46875 105.77734375 C75.32233947 106.1163169 79.13405219 106.06443246 83 106 C82.81171228 103.55519921 82.81171228 103.55519921 82 101 C80.18398635 99.79996657 80.18398635 99.79996657 78 99 C75.01922086 97.04120228 74.15752615 96.47257844 73 93 C71.86820312 92.93941406 70.73640625 92.87882812 69.5703125 92.81640625 C68.08852855 92.73200083 66.6067584 92.64735283 65.125 92.5625 C64.37863281 92.52318359 63.63226563 92.48386719 62.86328125 92.44335938 C57.2265625 92.11328125 57.2265625 92.11328125 55 91 C52.9625237 90.77141886 50.91959697 90.58975722 48.875 90.4375 C47.23144531 90.31181641 47.23144531 90.31181641 45.5546875 90.18359375 C44.71164063 90.12300781 43.86859375 90.06242187 43 90 C43.639375 89.896875 44.27875 89.79375 44.9375 89.6875 C45.618125 89.460625 46.29875 89.23375 47 89 C47.495 87.515 47.495 87.515 48 86 C53.445 86.99 53.445 86.99 59 88 C59 88.66 59 89.32 59 90 C62.465 89.505 62.465 89.505 66 89 C65.505 88.54625 65.01 88.0925 64.5 87.625 C63 86 63 86 63 84 C62.401875 83.7525 61.80375 83.505 61.1875 83.25 C58.68373081 81.81927475 57.51927612 80.4308418 56 78 C56 77.34 56 76.68 56 76 C54.515 76.495 54.515 76.495 53 77 C48.91405167 78.1865126 45.23657606 78.14865179 41 78 C41.495 76.515 41.495 76.515 42 75 C44.06640625 74.26953125 44.06640625 74.26953125 46.5625 73.8125 C47.38878906 73.65394531 48.21507813 73.49539062 49.06640625 73.33203125 C50.02353516 73.16767578 50.02353516 73.16767578 51 73 C49.9171875 72.4121875 49.9171875 72.4121875 48.8125 71.8125 C45.77198671 69.8530581 43.51625635 67.58426328 41 65 C40.01 64.505 40.01 64.505 39 64 C39 63.34 39 62.68 39 62 C38.34 62 37.68 62 37 62 C37 61.01 37 60.02 37 59 C36.34 59 35.68 59 35 59 C34.5875 58.401875 34.175 57.80375 33.75 57.1875 C31.54352811 54.42941013 29.19350539 53.41933573 26 52 C26 51.34 26 50.68 26 50 C25.34 50 24.68 50 24 50 C24 49.34 24 48.68 24 48 C22.68 47.67 21.36 47.34 20 47 C20 46.34 20 45.68 20 45 C19.34 45 18.68 45 18 45 C17.67 44.01 17.34 43.02 17 42 C16.01 41.505 16.01 41.505 15 41 C15 40.34 15 39.68 15 39 C14.34 39 13.68 39 13 39 C13 38.34 13 37.68 13 37 C11.68 36.67 10.36 36.34 9 36 C9 35.34 9 34.68 9 34 C7.515 33.505 7.515 33.505 6 33 C6 32.34 6 31.68 6 31 C5.34 31 4.68 31 4 31 C4 30.34 4 29.68 4 29 C2.68 28.67 1.36 28.34 0 28 C0 27.34 0 26.68 0 26 C-0.598125 25.896875 -1.19625 25.79375 -1.8125 25.6875 C-4.36005783 24.88683897 -5.41524098 24.13942468 -7 22 C-7 20.68 -7 19.36 -7 18 C-8.32 17.67 -9.64 17.34 -11 17 C-11 16.34 -11 15.68 -11 15 C-12.32 14.67 -13.64 14.34 -15 14 C-15.6875 11.6875 -15.6875 11.6875 -16 9 C-14.6875 7.1875 -14.6875 7.1875 -13 6 C-12.34 6 -11.68 6 -11 6 C-11 5.34 -11 4.68 -11 4 C-9.68 3.67 -8.36 3.34 -7 3 C-7 2.34 -7 1.68 -7 1 C-4.53721199 -0.231394 -2.7204945 -0.07159196 0 0 Z " fill="#C2A65F" transform="translate(20,5)"/>
<path d="M0 0 C0.66 0 1.32 0 2 0 C2 0.66 2 1.32 2 2 C2.8971875 2.433125 2.8971875 2.433125 3.8125 2.875 C6 4 6 4 9 6 C9 7.32 9 8.64 9 10 C10.32 10.33 11.64 10.66 13 11 C13 11.66 13 12.32 13 13 C13.8971875 13.433125 13.8971875 13.433125 14.8125 13.875 C17 15 17 15 20 17 C20 17.66 20 18.32 20 19 C20.66 19 21.32 19 22 19 C22 19.99 22 20.98 22 22 C22.66 22 23.32 22 24 22 C24 22.66 24 23.32 24 24 C24.639375 24.268125 25.27875 24.53625 25.9375 24.8125 C28 26 28 26 29 29 C31.01508358 29.73323796 31.01508358 29.73323796 33 30 C33 30.66 33 31.32 33 32 C33.99 32.33 34.98 32.66 36 33 C36 33.66 36 34.32 36 35 C36.66 35 37.32 35 38 35 C38.495 36.98 38.495 36.98 39 39 C39.66 39 40.32 39 41 39 C41 39.99 41 40.98 41 42 C41.639375 42.268125 42.27875 42.53625 42.9375 42.8125 C45 44 45 44 46 47 C48.01508358 47.73323796 48.01508358 47.73323796 50 48 C50 48.66 50 49.32 50 50 C50.57234375 50.27972656 51.1446875 50.55945312 51.734375 50.84765625 C53.9551836 51.97720545 56.10836757 53.1644185 58.25 54.4375 C59.30960938 55.05431641 59.30960938 55.05431641 60.390625 55.68359375 C60.92171875 56.11800781 61.4528125 56.55242188 62 57 C62 57.99 62 58.98 62 60 C62.99 59.67 63.98 59.34 65 59 C67.22818441 58.93062938 69.45834524 58.91542916 71.6875 58.9375 C73.45673828 58.95103516 73.45673828 58.95103516 75.26171875 58.96484375 C76.16535156 58.97644531 77.06898437 58.98804688 78 59 C78 58.34 78 57.68 78 57 C79.8253125 56.938125 79.8253125 56.938125 81.6875 56.875 C82.37199219 56.85179687 83.05648437 56.82859375 83.76171875 56.8046875 C86 57 86 57 88.19433594 58.00219727 C91.65420392 59.23266024 94.4597067 59.20969838 98.12890625 59.16015625 C98.80042221 59.15495468 99.47193817 59.14975311 100.1638031 59.14439392 C102.29692885 59.1266769 104.4295607 59.09552211 106.5625 59.0625 C108.69896082 59.0348038 110.83535026 59.01009696 112.97190857 58.99131775 C114.90785778 58.97353834 116.84371141 58.94612689 118.77954102 58.91821289 C121.42256446 58.98533539 123.50182317 59.20344026 126 60 C126 60.66 126 61.32 126 62 C127.18263428 61.75552124 127.18263428 61.75552124 128.38916016 61.50610352 C132.87975543 60.87669148 137.24572696 60.87601955 141.7734375 60.90234375 C142.6971817 60.9037587 143.6209259 60.90517365 144.57266235 60.90663147 C147.50680862 60.91220391 150.44087701 60.92475131 153.375 60.9375 C155.37109264 60.94251856 157.36718649 60.94708085 159.36328125 60.95117188 C164.24221725 60.96216431 169.12109545 60.9794099 174 61 C174 61.66 174 62.32 174 63 C168.35177849 63.80511842 162.89230157 64.14737522 157.19140625 64.1328125 C156.35927109 64.13422241 155.52713593 64.13563232 154.66978455 64.13708496 C151.96731271 64.13921359 149.26495993 64.13293087 146.5625 64.125 C145.63791992 64.1234491 144.71333984 64.12189819 143.76074219 64.12030029 C131.00406262 64.09527317 118.25231849 63.96346671 105.5 63.625 C104.82711945 63.60971252 104.15423889 63.59442505 103.46096802 63.57867432 C96.46544149 63.41270255 89.79442129 63.02628245 82.97070312 61.41552734 C80.84642965 60.89684203 80.84642965 60.89684203 78 61 C78 61.66 78 62.32 78 63 C74.37 63.33 70.74 63.66 67 64 C68.155 64.94875 69.31 65.8975 70.5 66.875 C72.46875 68.4921875 72.46875 68.4921875 74 70 C74 70.66 74 71.32 74 72 C88.7783504 73.42467088 103.60815486 73.11104273 118.4375 73.0625 C121.11523353 73.05690008 123.7929665 73.05291428 126.47070312 73.04882812 C132.98048889 73.03789656 139.49024011 73.0212336 146 73 C146 73.66 146 74.32 146 75 C153.59 75 161.18 75 169 75 C169 75.66 169 76.32 169 77 C155.49747435 80.21610252 139.73576089 77.71413801 126 77 C126 76.34 126 75.68 126 75 C124.8759375 75.32742187 123.751875 75.65484375 122.59375 75.9921875 C117.85269459 77.17745135 113.36236942 77.22794919 108.5 77.125 C107.67757812 77.11597656 106.85515625 77.10695313 106.0078125 77.09765625 C104.00507917 77.07436865 102.00249846 77.03850959 100 77 C100 76.34 100 75.68 100 75 C98.02 75 96.04 75 94 75 C94 75.66 94 76.32 94 77 C89.71 77 85.42 77 81 77 C81 77.99 81 78.98 81 80 C81.598125 80.28875 82.19625 80.5775 82.8125 80.875 C85 82 85 82 88 84 C88 84.99 88 85.98 88 87 C88.66 87 89.32 87 90 87 C89.7215625 88.175625 89.7215625 88.175625 89.4375 89.375 C88.74037734 91.97089775 88.74037734 91.97089775 90 94 C88.0625 93.1875 88.0625 93.1875 86 92 C85.67 91.01 85.34 90.02 85 89 C83.9171875 88.62875 83.9171875 88.62875 82.8125 88.25 C78.36659076 86.27404034 75.16969611 82.33939223 73 78 C72.175 77.505 71.35 77.01 70.5 76.5 C68 75 68 75 67 73 C64.98330173 71.86649466 64.98330173 71.86649466 63 71 C63 70.34 63 69.68 63 69 C62.34 69 61.68 69 61 69 C59.2734375 67.3203125 59.2734375 67.3203125 57.375 65.125 C56.74335937 64.40570313 56.11171875 63.68640625 55.4609375 62.9453125 C54 61 54 61 54 59 C52.02 58.34 50.04 57.68 48 57 C48 56.34 48 55.68 48 55 C47.401875 54.731875 46.80375 54.46375 46.1875 54.1875 C44.00152146 53.00082594 42.58667406 51.90400887 41 50 C41 49.34 41 48.68 41 48 C40.1028125 47.9071875 40.1028125 47.9071875 39.1875 47.8125 C36.09660471 46.66445318 35.4119656 44.89452948 34 42 C34 41.34 34 40.68 34 40 C32.68 39.67 31.36 39.34 30 39 C30 38.34 30 37.68 30 37 C29.443125 36.938125 28.88625 36.87625 28.3125 36.8125 C25.00931958 35.6519231 23.28105267 33.59786554 21 31 C21 30.34 21 29.68 21 29 C20.13375 28.9071875 20.13375 28.9071875 19.25 28.8125 C16.11742429 27.6812921 14.96539149 25.62052199 13 23 C12.34 22.67 11.68 22.34 11 22 C11 20.68 11 19.36 11 18 C9.865625 17.731875 8.73125 17.46375 7.5625 17.1875 C6.386875 16.795625 5.21125 16.40375 4 16 C3.67 15.01 3.34 14.02 3 13 C0.49552484 11.78130071 0.49552484 11.78130071 -2 11 C-1.67 9.02 -1.34 7.04 -1 5 C-0.34 5 0.32 5 1 5 C0.67 3.35 0.34 1.7 0 0 Z " fill="#E1C97D" transform="translate(20,6)"/>
<path d="M0 0 C2.625 2.375 2.625 2.375 5 5 C5 5.66 5 6.32 5 7 C5.66 7 6.32 7 7 7 C7.61875 7.78375 8.2375 8.5675 8.875 9.375 C10.88852174 11.86229156 12.08642859 12.85538266 15 14 C15 14.66 15 15.32 15 16 C15.556875 16.2475 16.11375 16.495 16.6875 16.75 C19.42410913 18.22924818 21.67650869 19.93467439 24 22 C24 22.66 24 23.32 24 24 C24.598125 24.2475 25.19625 24.495 25.8125 24.75 C28.31626919 26.18072525 29.48072388 27.5691582 31 30 C31 30.66 31 31.32 31 32 C31.66 32 32.32 32 33 32 C33 32.66 33 33.32 33 34 C34.32 34.33 35.64 34.66 37 35 C37 35.66 37 36.32 37 37 C37.99 37.33 38.98 37.66 40 38 C40 38.66 40 39.32 40 40 C40.66 40 41.32 40 42 40 C42 40.66 42 41.32 42 42 C42.556875 42.20625 43.11375 42.4125 43.6875 42.625 C45.94696811 43.96846753 46.9998656 45.05157702 48.625 47.0625 C50.67119397 50.00824713 50.67119397 50.00824713 53 51 C53 51.66 53 52.32 53 53 C53.556875 53.2475 54.11375 53.495 54.6875 53.75 C57.42410913 55.22924818 59.67650869 56.93467439 62 59 C62 59.66 62 60.32 62 61 C62.66 61 63.32 61 64 61 C65.625 63.5 65.625 63.5 67 66 C65.8125 67.5625 65.8125 67.5625 64 69 C59.29421884 68.86159467 53.97976136 66.46291715 50 64 C48.85546875 61.98828125 48.85546875 61.98828125 48 60 C47.34 59.34 46.68 58.68 46 58 C46.66 57.67 47.32 57.34 48 57 C46.58012622 53.45031556 45.41153696 52.56746293 42 51 C40.73390349 50.19133191 39.48483071 49.35565037 38.25 48.5 C37.63640625 48.0771875 37.0228125 47.654375 36.390625 47.21875 C35.93171875 46.8165625 35.4728125 46.414375 35 46 C35 45.34 35 44.68 35 44 C34.01 43.67 33.02 43.34 32 43 C32 42.34 32 41.68 32 41 C31.34 41 30.68 41 30 41 C30 40.01 30 39.02 30 38 C29.43539062 37.75378906 28.87078125 37.50757813 28.2890625 37.25390625 C25.60920728 35.78593095 23.62041197 34.0064331 21.375 31.9375 C18.41210833 29.14219542 18.41210833 29.14219542 15 27 C15 26.34 15 25.68 15 25 C14.34 25 13.68 25 13 25 C13 24.34 13 23.68 13 23 C12.34 23 11.68 23 11 23 C10.9175 22.38125 10.835 21.7625 10.75 21.125 C9.75429316 18.30383061 8.63995068 18.27283336 6 17 C4.71812563 16.04119966 3.4668707 15.04006043 2.25 14 C1.63640625 13.484375 1.0228125 12.96875 0.390625 12.4375 C-1 11 -1 11 -1 9 C-3.475 8.01 -3.475 8.01 -6 7 C-6 4 -6 4 -4.125 1.8125 C-2 0 -2 0 0 0 Z " fill="#C3A863" transform="translate(105,95)"/>
<path d="M0 0 C0.99 0.66 1.98 1.32 3 2 C3 2.99 3 3.98 3 5 C3.74765625 4.98839844 4.4953125 4.97679687 5.265625 4.96484375 C6.25046875 4.95582031 7.2353125 4.94679687 8.25 4.9375 C9.71179688 4.92009766 9.71179688 4.92009766 11.203125 4.90234375 C13.65758678 4.98804423 15.66168914 5.29293934 18 6 C18 6.66 18 7.32 18 8 C14.37 8 10.74 8 7 8 C7 9.32 7 10.64 7 12 C7.66 12 8.32 12 9 12 C10.4606285 14.64738916 11 15.89448334 11 19 C9.02 18.67 7.04 18.34 5 18 C5 17.34 5 16.68 5 16 C3.35 15.67 1.7 15.34 0 15 C0 14.34 0 13.68 0 13 C-1.32 13 -2.64 13 -4 13 C-4 12.34 -4 11.68 -4 11 C-4.91495239 10.970271 -4.91495239 10.970271 -5.84838867 10.93994141 C-8.62850533 10.84432124 -11.40790846 10.73479295 -14.1875 10.625 C-15.14720703 10.5940625 -16.10691406 10.563125 -17.09570312 10.53125 C-18.02705078 10.49257812 -18.95839844 10.45390625 -19.91796875 10.4140625 C-20.77156982 10.3826416 -21.6251709 10.3512207 -22.50463867 10.31884766 C-25.26741184 9.96583114 -27.44388734 9.08089171 -30 8 C-38.29220165 6.9812438 -45.77835573 8.48679343 -53.7331543 10.56787109 C-59.87562894 12.12081863 -65.66679539 12.43929743 -72 12 C-72 11.34 -72 10.68 -72 10 C-73.299375 9.855625 -74.59875 9.71125 -75.9375 9.5625 C-79.875 9.125 -79.875 9.125 -81 8 C-83.5526431 7.89884631 -86.07252823 7.86135042 -88.625 7.875 C-89.32496094 7.87113281 -90.02492188 7.86726562 -90.74609375 7.86328125 C-97.8192725 7.87640403 -104.2069847 9.00205432 -111 11 C-111.66 11 -112.32 11 -113 11 C-112.67 10.01 -112.34 9.02 -112 8 C-107.545 7.505 -107.545 7.505 -103 7 C-103 6.34 -103 5.68 -103 5 C-102.13375 4.855625 -101.2675 4.71125 -100.375 4.5625 C-98.30720888 4.21786815 -96.24310473 3.84862095 -94.1875 3.4375 C-89.04322481 2.73142301 -83.96244724 2.34585092 -79 4 C-79 4.66 -79 5.32 -79 6 C-77.68 6 -76.36 6 -75 6 C-75 6.66 -75 7.32 -75 8 C-71.31225385 7.86001598 -67.62487337 7.71195796 -63.9375 7.5625 C-62.37999023 7.50352539 -62.37999023 7.50352539 -60.79101562 7.44335938 C-51.87350567 7.76247659 -51.87350567 7.76247659 -44 5 C-41.48863896 4.90024968 -39.01096585 4.86117817 -36.5 4.875 C-35.79746094 4.87113281 -35.09492188 4.86726562 -34.37109375 4.86328125 C-29.12661378 4.87338622 -29.12661378 4.87338622 -28 6 C-25.65012738 6.23527773 -23.29443961 6.41386417 -20.9375 6.5625 C-19.00197266 6.68818359 -19.00197266 6.68818359 -17.02734375 6.81640625 C-15.52880859 6.90728516 -15.52880859 6.90728516 -14 7 C-15.32 5.68 -16.64 4.36 -18 3 C-17.319375 3.144375 -16.63875 3.28875 -15.9375 3.4375 C-12.63726918 4.06945909 -9.32855574 4.54313941 -6 5 C-5.67 4.01 -5.34 3.02 -5 2 C-3.35 2 -1.7 2 0 2 C0 1.34 0 0.68 0 0 Z " fill="#919191" transform="translate(177,158)"/>
<path d="M0 0 C0.33 1.98 0.66 3.96 1 6 C0.34 6 -0.32 6 -1 6 C-1.33 7.98 -1.66 9.96 -2 12 C-1.401875 12.0825 -0.80375 12.165 -0.1875 12.25 C2 13 2 13 3.4375 15 C4.87886306 17.25275456 4.87886306 17.25275456 7.6875 17.75 C8.450625 17.8325 9.21375 17.915 10 18 C9.6390625 18.48210938 9.278125 18.96421875 8.90625 19.4609375 C8.21015625 20.40839844 8.21015625 20.40839844 7.5 21.375 C6.80390625 22.31472656 6.80390625 22.31472656 6.09375 23.2734375 C4.82161899 24.94094613 4.82161899 24.94094613 5 27 C5.99 27.33 6.98 27.66 8 28 C9.35368596 29.31266518 10.68799596 30.64567325 12 32 C12.66 32.33 13.32 32.66 14 33 C14 33.66 14 34.32 14 35 C14.61875 35.309375 15.2375 35.61875 15.875 35.9375 C20 38 20 38 20.9375 40.5 C21.288125 41.325 21.63875 42.15 22 43 C22.99 43.33 23.98 43.66 25 44 C25 44.66 25 45.32 25 46 C25.639375 46.268125 26.27875 46.53625 26.9375 46.8125 C29 48 29 48 30 51 C31.65438613 51.69658363 33.32254318 52.36096883 35 53 C36.8125 54.5 36.8125 54.5 38 56 C38 56.66 38 57.32 38 58 C33.69235185 56.43358249 29.93828536 54.31663844 26 52 C26 51.34 26 50.68 26 50 C25.34 50 24.68 50 24 50 C24 49.34 24 48.68 24 48 C22.68 47.67 21.36 47.34 20 47 C20 46.34 20 45.68 20 45 C19.34 45 18.68 45 18 45 C17.67 44.01 17.34 43.02 17 42 C16.01 41.505 16.01 41.505 15 41 C15 40.34 15 39.68 15 39 C14.34 39 13.68 39 13 39 C13 38.34 13 37.68 13 37 C11.68 36.67 10.36 36.34 9 36 C9 35.34 9 34.68 9 34 C7.515 33.505 7.515 33.505 6 33 C6 32.34 6 31.68 6 31 C5.34 31 4.68 31 4 31 C4 30.34 4 29.68 4 29 C2.68 28.67 1.36 28.34 0 28 C0 27.34 0 26.68 0 26 C-0.598125 25.896875 -1.19625 25.79375 -1.8125 25.6875 C-4.36005783 24.88683897 -5.41524098 24.13942468 -7 22 C-7 20.68 -7 19.36 -7 18 C-8.32 17.67 -9.64 17.34 -11 17 C-11 16.34 -11 15.68 -11 15 C-12.32 14.67 -13.64 14.34 -15 14 C-15.6875 11.6875 -15.6875 11.6875 -16 9 C-14.6875 7.1875 -14.6875 7.1875 -13 6 C-12.34 6 -11.68 6 -11 6 C-11 5.34 -11 4.68 -11 4 C-9.68 3.67 -8.36 3.34 -7 3 C-7 2.34 -7 1.68 -7 1 C-4.53721199 -0.231394 -2.7204945 -0.07159196 0 0 Z " fill="#958F89" transform="translate(20,5)"/>
<path d="M0 0 C6.93 0 13.86 0 21 0 C21 0.66 21 1.32 21 2 C29.28593784 2.1317552 37.46786644 1.87934189 45.72998047 1.26782227 C50.00224759 0.98335157 53.77374647 1.09580947 58 2 C58 2.66 58 3.32 58 4 C59.32 4 60.64 4 62 4 C62 4.66 62 5.32 62 6 C59.0815181 6.17167541 57.16383818 6.0679329 54.4375 4.9375 C49.27299197 3.52899781 44.25629755 4.19071002 39 5 C38.67 5.33 38.34 5.66 38 6 C35.91956287 6.12635423 33.83423788 6.17581705 31.75 6.1875 C30.04070312 6.20876953 30.04070312 6.20876953 28.296875 6.23046875 C25 6 25 6 22.5703125 5.00390625 C19.09649324 3.64711058 15.7965119 3.70882417 12.125 3.75 C11.44308594 3.74226562 10.76117188 3.73453125 10.05859375 3.7265625 C9.38183594 3.72914063 8.70507812 3.73171875 8.0078125 3.734375 C7.40598145 3.73663086 6.80415039 3.73888672 6.18408203 3.74121094 C3.8029422 3.95430822 3.8029422 3.95430822 0.85107422 4.99511719 C-3.73737938 6.19240862 -7.90740493 6.3148226 -12.625 6.34375 C-13.53072754 6.3583728 -14.43645508 6.37299561 -15.36962891 6.38806152 C-19.21698441 6.44988574 -23.06449409 6.48980418 -26.91210938 6.53173828 C-29.7332369 6.56564147 -32.55404018 6.61070613 -35.375 6.65625 C-36.23561035 6.6615271 -37.0962207 6.6668042 -37.98291016 6.67224121 C-43.00238592 6.75458039 -47.17120291 7.48537731 -52 9 C-54.33215844 9.07403678 -56.66860788 9.09515886 -59 9 C-59 8.34 -59 7.68 -59 7 C-58.34 7 -57.68 7 -57 7 C-57 6.34 -57 5.68 -57 5 C-50.98277343 4.14027189 -45.09733322 3.81240083 -39.0234375 3.71875 C-38.09455719 3.70034058 -37.16567688 3.68193115 -36.20864868 3.66296387 C-32.26746157 3.58493286 -28.32612194 3.51661823 -24.38476562 3.44775391 C-21.49340986 3.39581624 -18.60218877 3.33866982 -15.7109375 3.28125 C-14.82642914 3.26767456 -13.94192078 3.25409912 -13.03060913 3.2401123 C-8.58818827 3.15112988 -4.37332958 2.88162612 0 2 C0 1.34 0 0.68 0 0 Z " fill="#B5B5B5" transform="translate(126,175)"/>
<path d="M0 0 C1.216875 -0.04125 2.43375 -0.0825 3.6875 -0.125 C4.71423828 -0.15980469 4.71423828 -0.15980469 5.76171875 -0.1953125 C8 0 8 0 10.19433594 1.00219727 C13.65420392 2.23266024 16.4597067 2.20969838 20.12890625 2.16015625 C20.80042221 2.15495468 21.47193817 2.14975311 22.1638031 2.14439392 C24.29692885 2.1266769 26.4295607 2.09552211 28.5625 2.0625 C30.69896082 2.0348038 32.83535026 2.01009696 34.97190857 1.99131775 C36.90785778 1.97353834 38.84371141 1.94612689 40.77954102 1.91821289 C43.42256446 1.98533539 45.50182317 2.20344026 48 3 C48 3.66 48 4.32 48 5 C49.18263428 4.75552124 49.18263428 4.75552124 50.38916016 4.50610352 C54.87975543 3.87669148 59.24572696 3.87601955 63.7734375 3.90234375 C64.6971817 3.9037587 65.6209259 3.90517365 66.57266235 3.90663147 C69.50680862 3.91220391 72.44087701 3.92475131 75.375 3.9375 C77.37109264 3.94251856 79.36718649 3.94708085 81.36328125 3.95117188 C86.24221725 3.96216431 91.12109545 3.9794099 96 4 C96 4.66 96 5.32 96 6 C90.35177849 6.80511842 84.89230157 7.14737522 79.19140625 7.1328125 C78.35927109 7.13422241 77.52713593 7.13563232 76.66978455 7.13708496 C73.96731271 7.13921359 71.26495993 7.13293087 68.5625 7.125 C67.63791992 7.1234491 66.71333984 7.12189819 65.76074219 7.12030029 C53.00406262 7.09527317 40.25231849 6.96346671 27.5 6.625 C26.82711945 6.60971252 26.15423889 6.59442505 25.46096802 6.57867432 C18.47307016 6.41288354 11.89504792 5.94480202 5.07373047 4.40527344 C2.39403333 3.88157468 0.01356702 3.96917908 -2.6875 4.3125 C-3.595 4.42078125 -4.5025 4.5290625 -5.4375 4.640625 C-6.283125 4.75921875 -7.12875 4.8778125 -8 5 C-9.11375 5.14695312 -9.11375 5.14695312 -10.25 5.296875 C-11.83575301 5.51427662 -13.41843445 5.75397869 -15 6 C-15 5.34 -15 4.68 -15 4 C-11.65060119 1.97441119 -9.13037449 1.78261013 -5.25 1.875 C-4.26515625 1.89304687 -3.2803125 1.91109375 -2.265625 1.9296875 C-1.14414063 1.96449219 -1.14414063 1.96449219 0 2 C0 1.34 0 0.68 0 0 Z " fill="#989898" transform="translate(98,63)"/>
<path d="M0 0 C0.64402771 -0.00014603 1.28805542 -0.00029205 1.95159912 -0.0004425 C4.08348949 0.00025499 6.21529283 0.00803973 8.34716797 0.01586914 C9.82404533 0.0177339 11.30092331 0.01915753 12.77780151 0.02015686 C16.66747746 0.02397747 20.55711614 0.03380387 24.44677734 0.04486084 C28.41487117 0.05508476 32.38297102 0.05965658 36.35107422 0.06469727 C44.13885163 0.07542654 51.92659833 0.0924975 59.71435547 0.11352539 C59.71435547 0.77352539 59.71435547 1.43352539 59.71435547 2.11352539 C67.30435547 2.11352539 74.89435547 2.11352539 82.71435547 2.11352539 C82.71435547 2.77352539 82.71435547 3.43352539 82.71435547 4.11352539 C69.21182982 7.32962791 53.45011636 4.8276634 39.71435547 4.11352539 C39.71435547 3.45352539 39.71435547 2.79352539 39.71435547 2.11352539 C38.02826172 2.6046582 38.02826172 2.6046582 36.30810547 3.10571289 C31.56705006 4.29097674 27.07672489 4.34147458 22.21435547 4.23852539 C20.98072266 4.22499023 20.98072266 4.22499023 19.72216797 4.21118164 C17.71943464 4.18789404 15.71685393 4.15203498 13.71435547 4.11352539 C13.71435547 3.45352539 13.71435547 2.79352539 13.71435547 2.11352539 C11.73435547 2.11352539 9.75435547 2.11352539 7.71435547 2.11352539 C7.71435547 2.77352539 7.71435547 3.43352539 7.71435547 4.11352539 C5.42275228 4.14045023 3.13106 4.15988663 0.83935547 4.17602539 C-0.43681641 4.18762695 -1.71298828 4.19922852 -3.02783203 4.21118164 C-6.28564453 4.11352539 -6.28564453 4.11352539 -8.28564453 3.11352539 C-8.28564453 2.45352539 -8.28564453 1.79352539 -8.28564453 1.11352539 C-5.47348941 -0.29255217 -3.14520233 -0.00597947 0 0 Z " fill="#B3B3B3" transform="translate(106.28564453125,78.886474609375)"/>
<path d="M0 0 C4.29 0 8.58 0 13 0 C13 0.99 13 1.98 13 3 C13.99 3.33 14.98 3.66 16 4 C15.31550781 3.83628906 14.63101563 3.67257813 13.92578125 3.50390625 C10.6256722 2.93552966 7.53445931 2.90369233 4.1875 2.9375 C2.44533203 2.95103516 2.44533203 2.95103516 0.66796875 2.96484375 C-0.21246094 2.97644531 -1.09289062 2.98804688 -2 3 C-2 3.66 -2 4.32 -2 5 C-2.81154541 5.0501123 -3.62309082 5.10022461 -4.45922852 5.15185547 C-8.16086981 5.38494233 -11.8616381 5.62986135 -15.5625 5.875 C-17.47772461 5.99294922 -17.47772461 5.99294922 -19.43164062 6.11328125 C-26.74385655 6.49500359 -26.74385655 6.49500359 -33.859375 8.0546875 C-37.87500953 9.26337351 -41.52142025 9.29389197 -45.6875 9.25 C-46.80608398 9.26160156 -46.80608398 9.26160156 -47.94726562 9.2734375 C-53.51248286 9.25357945 -53.51248286 9.25357945 -55.95727539 7.98193359 C-58.38988058 6.81258519 -59.87043857 6.8425972 -62.546875 7.0234375 C-63.39121094 7.075 -64.23554687 7.1265625 -65.10546875 7.1796875 C-65.97816406 7.24414062 -66.85085937 7.30859375 -67.75 7.375 C-69.08224609 7.46007812 -69.08224609 7.46007812 -70.44140625 7.546875 C-72.62846332 7.68797546 -74.8143069 7.8393433 -77 8 C-77 7.01 -77 6.02 -77 5 C-71.84053135 3.2958322 -67.5574667 2.77774395 -62.0625 2.875 C-61.37865234 2.88402344 -60.69480469 2.89304688 -59.99023438 2.90234375 C-58.32666713 2.92561042 -56.66328369 2.96146833 -55 3 C-55 3.66 -55 4.32 -55 5 C-52.85446536 5.05493545 -50.70850234 5.09320737 -48.5625 5.125 C-46.77005859 5.15980469 -46.77005859 5.15980469 -44.94140625 5.1953125 C-41.94551951 5.04685429 -39.87536863 4.77160268 -37.0625 4.03125 C-30.00091519 2.33055418 -22.66417643 2.52816502 -15.4375 2.375 C-13.93682824 2.33674154 -12.4361766 2.29768549 -10.93554688 2.2578125 C-7.29055056 2.16267804 -3.64540046 2.07834092 0 2 C0 1.34 0 0.68 0 0 Z " fill="#A6A6A6" transform="translate(133,147)"/>
<path d="M0 0 C0 0.66 0 1.32 0 2 C4.29 1.34 8.58 0.68 13 0 C13 0.66 13 1.32 13 2 C15.64 1.67 18.28 1.34 21 1 C21 0.34 21 -0.32 21 -1 C23.64 -1 26.28 -1 29 -1 C29 -0.34 29 0.32 29 1 C35.6 1 42.2 1 49 1 C49 1.99 49 2.98 49 4 C46.02119476 4.19697084 43.04235614 4.38277673 40.0625 4.5625 C38.81629883 4.64661133 38.81629883 4.64661133 37.54492188 4.73242188 C32.55988856 5.02337713 27.85830972 4.90905097 22.90795898 4.23413086 C20.82410107 3.93910045 20.82410107 3.93910045 18 4 C18 4.66 18 5.32 18 6 C11.73 6 5.46 6 -1 6 C-1 5.34 -1 4.68 -1 4 C-12.52023612 2.96314909 -12.52023612 2.96314909 -24 4 C-24 3.34 -24 2.68 -24 2 C-16.77637274 -2.03179196 -7.92277274 -2.3903256 0 0 Z " fill="#A4A4A4" transform="translate(117,39)"/>
<path d="M0 0 C0.74572266 -0.00386719 1.49144531 -0.00773437 2.25976562 -0.01171875 C7.81086499 -0.00163501 7.81086499 -0.00163501 8.9375 1.125 C10.98520494 1.2712781 13.03762639 1.35242886 15.08984375 1.40625 C16.96639648 1.46232422 16.96639648 1.46232422 18.88085938 1.51953125 C20.19892578 1.55433594 21.51699219 1.58914062 22.875 1.625 C25.46756414 1.69366035 28.0600253 1.76636736 30.65234375 1.84375 C31.80855225 1.87404297 32.96476074 1.90433594 34.15600586 1.93554688 C36.9375 2.125 36.9375 2.125 38.9375 3.125 C41.81660588 3.35774209 44.67896495 3.54472757 47.5625 3.6875 C48.36429687 3.73068359 49.16609375 3.77386719 49.9921875 3.81835938 C51.9737511 3.92451457 53.95560271 4.02526855 55.9375 4.125 C55.9375 4.785 55.9375 5.445 55.9375 6.125 C49.79940964 6.17459611 43.66143707 6.21081249 37.52319336 6.23486328 C35.43690966 6.24489427 33.35063992 6.25852226 31.2644043 6.27587891 C28.25826562 6.30025494 25.25231355 6.31151236 22.24609375 6.3203125 C21.31977646 6.33063507 20.39345917 6.34095764 19.43907166 6.35159302 C14.21327548 6.35248969 9.96188144 5.72281571 4.9375 4.125 C2.53918959 3.8584899 2.53918959 3.8584899 0.31640625 3.9296875 C-0.47314453 3.93613281 -1.26269531 3.94257812 -2.07617188 3.94921875 C-2.87603516 3.96597656 -3.67589844 3.98273438 -4.5 4 C-5.74040039 4.01353516 -5.74040039 4.01353516 -7.00585938 4.02734375 C-9.02486708 4.05068488 -11.04372356 4.08654712 -13.0625 4.125 C-13.0625 4.785 -13.0625 5.445 -13.0625 6.125 C-14.0525 6.125 -15.0425 6.125 -16.0625 6.125 C-16.3925 5.135 -16.7225 4.145 -17.0625 3.125 C-14.7525 3.125 -12.4425 3.125 -10.0625 3.125 C-10.0625 2.465 -10.0625 1.805 -10.0625 1.125 C-6.88856311 -0.46196844 -3.48075795 -0.0181447 0 0 Z " fill="#C0C0C0" transform="translate(130.0625,90.875)"/>
<path d="M0 0 C1.34173403 0.92543709 2.67320159 1.86577405 4 2.8125 C5.11375 3.59560547 5.11375 3.59560547 6.25 4.39453125 C7.11625 5.18923828 7.11625 5.18923828 8 6 C8 6.99 8 7.98 8 9 C8.66 9 9.32 9 10 9 C11.625 10.375 11.625 10.375 13 12 C13 12.66 13 13.32 13 14 C13.515625 14.226875 14.03125 14.45375 14.5625 14.6875 C19.9318996 17.57871517 24.26300474 20.36500976 27 26 C25.35 25.67 23.7 25.34 22 25 C22 24.34 22 23.68 22 23 C21.01 23 20.02 23 19 23 C19 22.01 19 21.02 19 20 C18.38125 19.690625 17.7625 19.38125 17.125 19.0625 C15.75 18.375 14.375 17.6875 13 17 C13 16.34 13 15.68 13 15 C12.360625 14.690625 11.72125 14.38125 11.0625 14.0625 C9 13 9 13 8 12 C6.35659133 11.90145345 4.7088539 11.87027589 3.0625 11.875 C2.16660156 11.87242187 1.27070313 11.86984375 0.34765625 11.8671875 C-2.02155555 11.84578587 -2.02155555 11.84578587 -4 13 C-5.41629131 13.07203007 -6.83594535 13.08386064 -8.25390625 13.0625 C-9.5368457 13.05089844 -9.5368457 13.05089844 -10.84570312 13.0390625 C-12.62956299 13.0134139 -14.41341742 12.98738447 -16.19726562 12.9609375 C-21.89075162 12.90998908 -27.35199848 13.2660465 -33 14 C-33 13.01 -33 12.02 -33 11 C-27.47776963 8.66084926 -22.5002087 8.80096346 -16.625 8.9375 C-10.29330293 9.05891749 -4.26963857 8.94705313 2 8 C2.22609337 5.87635519 2.22609337 5.87635519 0.5 4.375 C0.005 3.92125 -0.49 3.4675 -1 3 C-0.67 2.01 -0.34 1.02 0 0 Z " fill="#A99361" transform="translate(127,127)"/>
<path d="M0 0 C0 0.66 0 1.32 0 2 C1.32 2 2.64 2 4 2 C4 2.66 4 3.32 4 4 C8.95 4 13.9 4 19 4 C19 4.66 19 5.32 19 6 C19.99 6.33 20.98 6.66 22 7 C18.71480525 8.09506492 16.26336585 8.09960608 12.8125 8.0625 C11.18248047 8.04896484 11.18248047 8.04896484 9.51953125 8.03515625 C8.68808594 8.02355469 7.85664062 8.01195312 7 8 C7 7.34 7 6.68 7 6 C5.700625 5.855625 4.40125 5.71125 3.0625 5.5625 C-0.875 5.125 -0.875 5.125 -2 4 C-4.5526431 3.89884631 -7.07252823 3.86135042 -9.625 3.875 C-10.32496094 3.87113281 -11.02492188 3.86726562 -11.74609375 3.86328125 C-18.8192725 3.87640403 -25.2069847 5.00205432 -32 7 C-32.66 7 -33.32 7 -34 7 C-33.67 6.01 -33.34 5.02 -33 4 C-28.545 3.505 -28.545 3.505 -24 3 C-24 2.34 -24 1.68 -24 1 C-22.700625 0.7834375 -22.700625 0.7834375 -21.375 0.5625 C-19.30720888 0.21786815 -17.24310473 -0.15137905 -15.1875 -0.5625 C-10.04322481 -1.26857699 -4.96244724 -1.65414908 0 0 Z " fill="#AFAFAF" transform="translate(98,162)"/>
<path d="M0 0 C1.08152344 -0.01417969 2.16304687 -0.02835937 3.27734375 -0.04296875 C6.0625 0.1875 6.0625 0.1875 8.0625 2.1875 C14.68436858 4.75632833 20.3500988 4.00923728 27.0625 2.1875 C27.0625 1.5275 27.0625 0.8675 27.0625 0.1875 C27.7225 0.1875 28.3825 0.1875 29.0625 0.1875 C29.0625 1.1775 29.0625 2.1675 29.0625 3.1875 C30.0525 3.1875 31.0425 3.1875 32.0625 3.1875 C32.0625 3.8475 32.0625 4.5075 32.0625 5.1875 C24.55658664 7.63841049 16.89701925 7.80126418 9.0625 7.1875 C8.08990234 6.6925 8.08990234 6.6925 7.09765625 6.1875 C3.93668416 4.63431602 0.69608626 4.89931622 -2.75 4.9375 C-3.77963867 4.92589844 -3.77963867 4.92589844 -4.83007812 4.9140625 C-9.51551287 4.93179357 -13.4349715 5.7790736 -17.9375 7.1875 C-20.875 7.3125 -20.875 7.3125 -22.9375 7.1875 C-23.2675 6.1975 -23.5975 5.2075 -23.9375 4.1875 C-22.72191406 3.98253906 -21.50632812 3.77757813 -20.25390625 3.56640625 C-18.66923486 3.29448039 -17.08460137 3.02233357 -15.5 2.75 C-14.69755859 2.61529297 -13.89511719 2.48058594 -13.06835938 2.34179688 C-8.21809199 1.50272108 -4.93216318 0.02932321 0 0 Z " fill="#A2A2A2" transform="translate(87.9375,119.8125)"/>
<path d="M0 0 C0.99 0.33 1.98 0.66 3 1 C3 1.66 3 2.32 3 3 C3.99 3.33 4.98 3.66 6 4 C7.35368596 5.31266518 8.68799596 6.64567325 10 8 C10.66 8.33 11.32 8.66 12 9 C12 9.66 12 10.32 12 11 C12.61875 11.309375 13.2375 11.61875 13.875 11.9375 C18 14 18 14 18.9375 16.5 C19.288125 17.325 19.63875 18.15 20 19 C20.99 19.33 21.98 19.66 23 20 C23 20.66 23 21.32 23 22 C23.639375 22.268125 24.27875 22.53625 24.9375 22.8125 C27 24 27 24 28 27 C29.65438613 27.69658363 31.32254318 28.36096883 33 29 C34.8125 30.5 34.8125 30.5 36 32 C36 32.66 36 33.32 36 34 C31.69235185 32.43358249 27.93828536 30.31663844 24 28 C24 27.34 24 26.68 24 26 C23.34 26 22.68 26 22 26 C22 25.34 22 24.68 22 24 C20.68 23.67 19.36 23.34 18 23 C18 22.34 18 21.68 18 21 C17.34 21 16.68 21 16 21 C15.67 20.01 15.34 19.02 15 18 C14.34 17.67 13.68 17.34 13 17 C13 16.34 13 15.68 13 15 C12.34 15 11.68 15 11 15 C11 14.34 11 13.68 11 13 C9.68 12.67 8.36 12.34 7 12 C7 11.34 7 10.68 7 10 C6.01 9.67 5.02 9.34 4 9 C4 8.34 4 7.68 4 7 C3.34 7 2.68 7 2 7 C2 6.34 2 5.68 2 5 C0.68 4.67 -0.64 4.34 -2 4 C-1.34 2.68 -0.68 1.36 0 0 Z " fill="#A1874F" transform="translate(22,29)"/>
<path d="M0 0 C0.69931641 -0.00064453 1.39863281 -0.00128906 2.11914062 -0.00195312 C7.0520388 0.0520388 7.0520388 0.0520388 8.1875 1.1875 C10.63358998 1.34730437 13.05481058 1.44679447 15.50390625 1.50390625 C16.23496078 1.52468735 16.96601532 1.54546844 17.71922302 1.56687927 C20.06271656 1.63245024 22.40632539 1.69129432 24.75 1.75 C26.33529855 1.79317808 27.92058529 1.83679213 29.50585938 1.88085938 C33.39962037 1.9881392 37.29349772 2.0893849 41.1875 2.1875 C41.1875 2.8475 41.1875 3.5075 41.1875 4.1875 C39.8778125 4.18226318 38.568125 4.17702637 37.21875 4.17163086 C32.28353581 4.15330676 27.34832451 4.14196953 22.41308594 4.13256836 C20.29133597 4.12758999 18.16958935 4.12080488 16.04785156 4.11206055 C4.6690565 4.06639494 -6.6164118 4.12249239 -17.9609375 5.06860352 C-20.8125 5.1875 -20.8125 5.1875 -22.8125 4.1875 C-22.8125 3.5275 -22.8125 2.8675 -22.8125 2.1875 C-15.16507086 0.8491999 -7.75622668 -0.00703194 0 0 Z " fill="#AEAEAE" transform="translate(153.8125,108.8125)"/>
<path d="M0 0 C0.99 0.66 1.98 1.32 3 2 C3 2.99 3 3.98 3 5 C3.74765625 4.98839844 4.4953125 4.97679687 5.265625 4.96484375 C6.25046875 4.95582031 7.2353125 4.94679687 8.25 4.9375 C9.71179688 4.92009766 9.71179688 4.92009766 11.203125 4.90234375 C13.65758678 4.98804423 15.66168914 5.29293934 18 6 C18 6.66 18 7.32 18 8 C14.37 8 10.74 8 7 8 C7 9.32 7 10.64 7 12 C7.66 12 8.32 12 9 12 C10.4606285 14.64738916 11 15.89448334 11 19 C9.02 18.67 7.04 18.34 5 18 C5 17.34 5 16.68 5 16 C3.35 15.67 1.7 15.34 0 15 C0.33 14.01 0.66 13.02 1 12 C0.67 11.01 0.34 10.02 0 9 C-0.66 8.67 -1.32 8.34 -2 8 C-2.33 7.01 -2.66 6.02 -3 5 C-3.99 5 -4.98 5 -6 5 C-5.67 4.01 -5.34 3.02 -5 2 C-3.35 2 -1.7 2 0 2 C0 1.34 0 0.68 0 0 Z " fill="#B09B7B" transform="translate(177,158)"/>
<path d="M0 0 C0.66 0 1.32 0 2 0 C2 0.66 2 1.32 2 2 C2.8971875 2.433125 2.8971875 2.433125 3.8125 2.875 C6 4 6 4 9 6 C9 7.32 9 8.64 9 10 C10.32 10.33 11.64 10.66 13 11 C13 11.66 13 12.32 13 13 C13.66 13 14.32 13 15 13 C14.67 14.32 14.34 15.64 14 17 C11.03 17 8.06 17 5 17 C4.34 15.68 3.68 14.36 3 13 C0.46229997 11.71745356 0.46229997 11.71745356 -2 11 C-1.67 9.02 -1.34 7.04 -1 5 C-0.34 5 0.32 5 1 5 C0.67 3.35 0.34 1.7 0 0 Z " fill="#C1C2C4" transform="translate(20,6)"/>
<path d="M0 0 C0.66 0.33 1.32 0.66 2 1 C1.67 1.99 1.34 2.98 1 4 C-0.23564697 4.01981934 -1.47129395 4.03963867 -2.74438477 4.06005859 C-7.34972749 4.13640574 -11.95476622 4.22507757 -16.55981445 4.31738281 C-18.549011 4.35555261 -20.53827374 4.39042598 -22.52758789 4.421875 C-25.3949339 4.46778697 -28.26182888 4.52573747 -31.12890625 4.5859375 C-32.45276085 4.60326431 -32.45276085 4.60326431 -33.80335999 4.62094116 C-38.92072519 4.74193994 -43.12414978 5.46994854 -48 7 C-50.33215844 7.07403678 -52.66860788 7.09515886 -55 7 C-55 6.34 -55 5.68 -55 5 C-54.34 5 -53.68 5 -53 5 C-53 4.34 -53 3.68 -53 3 C-46.93631786 2.13137336 -41.00390307 1.81180234 -34.8828125 1.71875 C-32.95833324 1.68099446 -31.03385407 1.6432339 -29.109375 1.60546875 C-26.10060655 1.55163491 -23.09181406 1.49943003 -20.08300781 1.44775391 C-17.16202145 1.39615139 -14.24118463 1.33890605 -11.3203125 1.28125 C-10.415159 1.26767456 -9.51000549 1.25409912 -8.5774231 1.2401123 C-7.74250336 1.22339478 -6.90758362 1.20667725 -6.04736328 1.18945312 C-4.944384 1.17066101 -4.944384 1.17066101 -3.81912231 1.15148926 C-1.90072498 1.10513063 -1.90072498 1.10513063 0 0 Z " fill="#A1A1A1" transform="translate(122,177)"/>
<path d="M0 0 C0.99 0.33 1.98 0.66 3 1 C3 1.66 3 2.32 3 3 C3.99 3.66 4.98 4.32 6 5 C1.34869856 5.91287225 -3.15068611 6.15485348 -7.875 6.125 C-8.63151855 6.12306641 -9.38803711 6.12113281 -10.16748047 6.11914062 C-20.7858716 6.0427035 -31.39512164 5.50769471 -42 5 C-42 4.01 -42 3.02 -42 2 C-21.02918383 1.80844533 -21.02918383 1.80844533 -11.53125 2.77734375 C-7.67766053 3.1163169 -3.86594781 3.06443246 0 3 C0 2.01 0 1.02 0 0 Z " fill="#A0A0A0" transform="translate(103,108)"/>
<path d="M0 0 C1.216875 -0.04125 2.43375 -0.0825 3.6875 -0.125 C4.71423828 -0.15980469 4.71423828 -0.15980469 5.76171875 -0.1953125 C8 0 8 0 10.1875 0.96875 C14.19227569 2.43716775 18.07731574 2.46455103 22.3125 2.625 C23.56643555 2.68300781 23.56643555 2.68300781 24.84570312 2.7421875 C26.89679259 2.83595159 28.94836515 2.91904245 31 3 C31 3.66 31 4.32 31 5 C27.45835085 5.0292067 23.91673303 5.04686814 20.375 5.0625 C18.87646484 5.07506836 18.87646484 5.07506836 17.34765625 5.08789062 C12.41770449 5.10421497 7.86236762 4.87421468 3 4 C0.25826752 4.05115015 0.25826752 4.05115015 -2.4375 4.375 C-3.38109375 4.47425781 -4.3246875 4.57351562 -5.296875 4.67578125 C-8.54166041 5.06496794 -11.77079763 5.49767963 -15 6 C-15 5.34 -15 4.68 -15 4 C-11.65060119 1.97441119 -9.13037449 1.78261013 -5.25 1.875 C-4.26515625 1.89304687 -3.2803125 1.91109375 -2.265625 1.9296875 C-1.14414063 1.96449219 -1.14414063 1.96449219 0 2 C0 1.34 0 0.68 0 0 Z " fill="#8C8C8C" transform="translate(98,63)"/>
<path d="M0 0 C0.68384766 0.00902344 1.36769531 0.01804688 2.07226562 0.02734375 C3.73583287 0.05061042 5.39921631 0.08646833 7.0625 0.125 C7.0625 0.785 7.0625 1.445 7.0625 2.125 C12.3425 2.125 17.6225 2.125 23.0625 2.125 C23.5575 3.115 23.5575 3.115 24.0625 4.125 C24.7225 4.455 25.3825 4.785 26.0625 5.125 C23.9762674 7.2112326 19.620761 6.31014112 16.75 6.3125 C15.97720703 6.32474609 15.20441406 6.33699219 14.40820312 6.34960938 C13.28381836 6.35250977 13.28381836 6.35250977 12.13671875 6.35546875 C11.45182373 6.35957764 10.76692871 6.36368652 10.0612793 6.36791992 C8.0625 6.125 8.0625 6.125 6.09204102 5.10913086 C3.66628228 3.93287277 2.18884721 3.96781438 -0.484375 4.1484375 C-1.32871094 4.2 -2.17304687 4.2515625 -3.04296875 4.3046875 C-3.91566406 4.36914062 -4.78835937 4.43359375 -5.6875 4.5 C-7.01974609 4.58507812 -7.01974609 4.58507812 -8.37890625 4.671875 C-10.56596332 4.81297546 -12.7518069 4.9643433 -14.9375 5.125 C-14.9375 4.135 -14.9375 3.145 -14.9375 2.125 C-9.77803135 0.4208322 -5.4949667 -0.09725605 0 0 Z " fill="#C5C5C5" transform="translate(70.9375,149.875)"/>
<path d="M0 0 C2.475 0.99 2.475 0.99 5 2 C5 2.66 5 3.32 5 4 C5.66 4 6.32 4 7 4 C7 4.66 7 5.32 7 6 C7.556875 6.2475 8.11375 6.495 8.6875 6.75 C11.42410913 8.22924818 13.67650869 9.93467439 16 12 C16 12.66 16 13.32 16 14 C17.32 14.66 18.64 15.32 20 16 C20 16.66 20 17.32 20 18 C18.88625 17.979375 17.7725 17.95875 16.625 17.9375 C13.16784079 17.73619282 13.16784079 17.73619282 11 19 C8.3276379 19.13415472 5.67749512 19.04318541 3 19 C3.33 18.01 3.66 17.02 4 16 C6.06640625 15.26953125 6.06640625 15.26953125 8.5625 14.8125 C9.38878906 14.65394531 10.21507813 14.49539062 11.06640625 14.33203125 C11.70449219 14.22246094 12.34257813 14.11289063 13 14 C12.29875 13.649375 11.5975 13.29875 10.875 12.9375 C7.2558441 10.49850363 4.5060241 7.57388317 2 4 C2 3.34 2 2.68 2 2 C1.34 2 0.68 2 0 2 C0 1.34 0 0.68 0 0 Z " fill="#AB9463" transform="translate(58,64)"/>
<path d="M0 0 C3.465 1.98 3.465 1.98 7 4 C7 4.66 7 5.32 7 6 C7.99 6.33 8.98 6.66 10 7 C10 7.66 10 8.32 10 9 C10.556875 9.226875 11.11375 9.45375 11.6875 9.6875 C14.66159588 11.37550036 16.72008865 13.46676517 19 16 C19 16.66 19 17.32 19 18 C19.66 18 20.32 18 21 18 C21 18.66 21 19.32 21 20 C21.66 20 22.32 20 23 20 C23 20.66 23 21.32 23 22 C23.8971875 22.433125 23.8971875 22.433125 24.8125 22.875 C27 24 27 24 30 26 C30 26.99 30 27.98 30 29 C27.50638429 27.79618552 25.31856917 26.54571278 23 25 C23 24.34 23 23.68 23 23 C22.01 23 21.02 23 20 23 C20 22.01 20 21.02 20 20 C19.34 20 18.68 20 18 20 C18 19.01 18 18.02 18 17 C17.071875 16.5359375 17.071875 16.5359375 16.125 16.0625 C14.75 15.375 13.375 14.6875 12 14 C12 13.34 12 12.68 12 12 C10.35 12 8.7 12 7 12 C7.66 11.67 8.32 11.34 9 11 C9 10.34 9 9.68 9 9 C7.68 8.67 6.36 8.34 5 8 C5 7.34 5 6.68 5 6 C4.360625 5.7525 3.72125 5.505 3.0625 5.25 C1 4 1 4 0.25 1.875 C0.1675 1.25625 0.085 0.6375 0 0 Z " fill="#A88F58" transform="translate(97,100)"/>
<path d="M0 0 C0.33 0.66 0.66 1.32 1 2 C0.67 2.99 0.34 3.98 0 5 C0.598125 5.0825 1.19625 5.165 1.8125 5.25 C4 6 4 6 5.4375 8 C6.87886306 10.25275456 6.87886306 10.25275456 9.6875 10.75 C10.450625 10.8325 11.21375 10.915 12 11 C6.32214765 15.88926174 6.32214765 15.88926174 3 16 C0.51384442 14.15840327 -0.00156904 12.99529289 -1 10 C-1.99 9.67 -2.98 9.34 -4 9 C-5 7.25 -5 7.25 -5 5 C-2.5625 2.25 -2.5625 2.25 0 0 Z " fill="#A8A5A3" transform="translate(18,12)"/>
<path d="M0 0 C0 0.66 0 1.32 0 2 C0.99 2 1.98 2 3 2 C3 2.66 3 3.32 3 4 C5.97 4.495 5.97 4.495 9 5 C9 5.66 9 6.32 9 7 C7.02 7 5.04 7 3 7 C3 6.34 3 5.68 3 5 C-8.52023612 3.96314909 -8.52023612 3.96314909 -20 5 C-20 4.34 -20 3.68 -20 3 C-13.45841601 -0.65111665 -7.36120371 -0.29887594 0 0 Z " fill="#BDBDBD" transform="translate(113,38)"/>
<path d="M0 0 C3.91665108 -0.02904864 7.8332744 -0.04681517 11.75 -0.0625 C12.86117187 -0.07087891 13.97234375 -0.07925781 15.1171875 -0.08789062 C16.18710938 -0.09111328 17.25703125 -0.09433594 18.359375 -0.09765625 C19.34389648 -0.10289307 20.32841797 -0.10812988 21.34277344 -0.11352539 C23.72869514 -0.01159103 25.72164581 0.31696643 28 1 C27.67 1.66 27.34 2.32 27 3 C25.68 2.67 24.36 2.34 23 2 C23 2.66 23 3.32 23 4 C13.1 4 3.2 4 -7 4 C-7 3.67 -7 3.34 -7 3 C-1.06 3 4.88 3 11 3 C11 2.34 11 1.68 11 1 C7.37 1 3.74 1 0 1 C0 0.67 0 0.34 0 0 Z " fill="#C9C9C9" transform="translate(118,65)"/>
<path d="M0 0 C0.721875 0.144375 1.44375 0.28875 2.1875 0.4375 C3.5796875 0.7159375 3.5796875 0.7159375 5 1 C6.2065625 1.309375 6.2065625 1.309375 7.4375 1.625 C10.49589476 2.07256996 12.99060943 1.62987244 16 1 C16 2.32 16 3.64 16 5 C16.99 5.33 17.98 5.66 19 6 C19.6875 8.0625 19.6875 8.0625 20 10 C18.02 10 16.04 10 14 10 C14 9.34 14 8.68 14 8 C13.40832031 7.92523438 12.81664062 7.85046875 12.20703125 7.7734375 C7.78988902 7.03844809 4.84623795 6.43946501 1.9375 2.875 C1.298125 1.92625 0.65875 0.9775 0 0 Z " fill="#9B866A" transform="translate(159,161)"/>
<path d="M0 0 C0.94552734 0.04382813 1.89105469 0.08765625 2.86523438 0.1328125 C3.85716797 0.184375 4.84910156 0.2359375 5.87109375 0.2890625 C7.31838867 0.35480469 7.31838867 0.35480469 8.79492188 0.421875 C14.66861547 0.70742931 20.4711701 1.20321008 26.30859375 1.9140625 C26.30859375 2.5740625 26.30859375 3.2340625 26.30859375 3.9140625 C22.67859375 3.9140625 19.04859375 3.9140625 15.30859375 3.9140625 C15.30859375 3.2540625 15.30859375 2.5940625 15.30859375 1.9140625 C13.32859375 1.9140625 11.34859375 1.9140625 9.30859375 1.9140625 C9.30859375 2.5740625 9.30859375 3.2340625 9.30859375 3.9140625 C7.01699056 3.94098734 4.72529829 3.96042374 2.43359375 3.9765625 C1.15742187 3.98816406 -0.11875 3.99976562 -1.43359375 4.01171875 C-4.69140625 3.9140625 -4.69140625 3.9140625 -6.69140625 2.9140625 C-6.69140625 2.2540625 -6.69140625 1.5940625 -6.69140625 0.9140625 C-4.21771187 -0.32278469 -2.75617556 -0.13158079 0 0 Z " fill="#B7B6B2" transform="translate(104.69140625,79.0859375)"/>
<path d="M0 0 C1.86398438 0.00676758 1.86398438 0.00676758 3.765625 0.01367188 C6.80213502 0.02535076 9.83854088 0.0417286 12.875 0.0625 C12.875 0.7225 12.875 1.3825 12.875 2.0625 C9.04754277 3.30256181 5.24154408 3.18942202 1.265625 3.16015625 C0.53881531 3.1587413 -0.18799438 3.15732635 -0.93682861 3.15586853 C-3.24959494 3.15028792 -5.56226312 3.13773904 -7.875 3.125 C-9.44661318 3.11998249 -11.01822789 3.11542002 -12.58984375 3.11132812 C-16.43493343 3.10032485 -20.2799501 3.08307361 -24.125 3.0625 C-24.125 2.4025 -24.125 1.7425 -24.125 1.0625 C-16.07026218 0.03094464 -8.1118879 -0.05645318 0 0 Z " fill="#A0A09F" transform="translate(170.125,123.9375)"/>
<path d="M0 0 C1.43666016 0.04737305 1.43666016 0.04737305 2.90234375 0.09570312 C3.81628906 0.14017578 4.73023437 0.18464844 5.671875 0.23046875 C6.91855957 0.28883911 6.91855957 0.28883911 8.19042969 0.34838867 C10.25 0.8125 10.25 0.8125 12.25 3.8125 C11.69127197 3.80726318 11.13254395 3.80202637 10.55688477 3.79663086 C7.97543506 3.77558281 5.39400351 3.76275266 2.8125 3.75 C1.49475586 3.73743164 1.49475586 3.73743164 0.15039062 3.72460938 C-5.56783077 3.70350893 -11.07800815 4.07969943 -16.75 4.8125 C-16.75 3.8225 -16.75 2.8325 -16.75 1.8125 C-11.10263529 -0.64164004 -6.00819876 -0.32465643 0 0 Z " fill="#BABAB9" transform="translate(110.75,136.1875)"/>
<path d="M0 0 C0.83273438 -0.01224609 1.66546875 -0.02449219 2.5234375 -0.03710938 C3.71839844 -0.04000977 3.71839844 -0.04000977 4.9375 -0.04296875 C6.03384766 -0.04913208 6.03384766 -0.04913208 7.15234375 -0.05541992 C9 0.1875 9 0.1875 11 2.1875 C9.92621094 2.32027344 8.85242188 2.45304688 7.74609375 2.58984375 C6.30989167 2.76819564 4.87369399 2.94658295 3.4375 3.125 C2.38079102 3.25551758 2.38079102 3.25551758 1.30273438 3.38867188 C-5.63098335 4.25139251 -12.27656187 5.2100182 -19 7.1875 C-19.66 7.1875 -20.32 7.1875 -21 7.1875 C-20.67 6.1975 -20.34 5.2075 -20 4.1875 C-15.545 3.6925 -15.545 3.6925 -11 3.1875 C-11 2.5275 -11 1.8675 -11 1.1875 C-7.58173253 -0.52163373 -3.76645237 0.00291521 0 0 Z " fill="#ADADAD" transform="translate(85,161.8125)"/>
<path d="M0 0 C0 0.66 0 1.32 0 2 C-0.66 2 -1.32 2 -2 2 C-2 2.99 -2 3.98 -2 5 C-2.639375 5.103125 -3.27875 5.20625 -3.9375 5.3125 C-4.618125 5.539375 -5.29875 5.76625 -6 6 C-6.33 6.99 -6.66 7.98 -7 9 C-6.01 9 -5.02 9 -4 9 C-4.75 11.4375 -4.75 11.4375 -6 14 C-7.9375 15 -7.9375 15 -10 15 C-11.8125 13.875 -11.8125 13.875 -13 12 C-12.6875 9.3125 -12.6875 9.3125 -12 7 C-10.68 6.67 -9.36 6.34 -8 6 C-8 5.34 -8 4.68 -8 4 C-6.68 3.67 -5.36 3.34 -4 3 C-4 2.34 -4 1.68 -4 1 C-2 0 -2 0 0 0 Z " fill="#9A7979" transform="translate(17,5)"/>
<path d="M0 0 C-3.35416667 0.47916667 -6.70833333 0.95833333 -10.0625 1.4375 C-11.00544922 1.57220703 -11.94839844 1.70691406 -12.91992188 1.84570312 C-17.94661458 2.56380208 -22.97330729 3.28190104 -28 4 C-28.33 3.01 -28.66 2.02 -29 1 C-5.93843725 -3.95895817 -5.93843725 -3.95895817 0 0 Z " fill="#A6A6A6" transform="translate(93,123)"/>
<path d="M0 0 C0 0.66 0 1.32 0 2 C-8.58 2 -17.16 2 -26 2 C-26 1.34 -26 0.68 -26 0 C-16.98237861 -3.06982856 -9.17156328 -2.14449914 0 0 Z " fill="#9E9E9E" transform="translate(93,139)"/>
<path d="M0 0 C1.40958984 0.24556641 1.40958984 0.24556641 2.84765625 0.49609375 C7.7063754 1.19019649 12.53934211 1.10834309 17.4375 1.0625 C18.82098633 1.05573242 18.82098633 1.05573242 20.23242188 1.04882812 C22.48835048 1.03713938 24.74413967 1.02075455 27 1 C27 1.66 27 2.32 27 3 C22.68805834 4.05066804 18.47663221 4.18340146 14.0625 4.1875 C13.37220703 4.19974609 12.68191406 4.21199219 11.97070312 4.22460938 C7.59183186 4.23706114 4.06706884 3.61027921 0 2 C0 1.34 0 0.68 0 0 Z " fill="#ADADAD" transform="translate(162,80)"/>
<path d="M0 0 C0.99 0 1.98 0 3 0 C3.33 1.98 3.66 3.96 4 6 C-1.29230769 10.06153846 -1.29230769 10.06153846 -4.875 9.75 C-5.57625 9.5025 -6.2775 9.255 -7 9 C-6.67 7.68 -6.34 6.36 -6 5 C-4.68 5 -3.36 5 -2 5 C-2 4.01 -2 3.02 -2 2 C-1.34 2 -0.68 2 0 2 C0 1.34 0 0.68 0 0 Z " fill="#B98082" transform="translate(17,5)"/>
<path d="M0 0 C3.63 0.66 7.26 1.32 11 2 C11 2.66 11 3.32 11 4 C12.98 4 14.96 4 17 4 C17 4.66 17 5.32 17 6 C9.25 6.125 9.25 6.125 7 5 C4.9625237 4.77141886 2.91959697 4.58975722 0.875 4.4375 C-0.76855469 4.31181641 -0.76855469 4.31181641 -2.4453125 4.18359375 C-3.28835937 4.12300781 -4.13140625 4.06242187 -5 4 C-4.0409375 3.8453125 -4.0409375 3.8453125 -3.0625 3.6875 C-2.381875 3.460625 -1.70125 3.23375 -1 3 C-0.67 2.01 -0.34 1.02 0 0 Z " fill="#828282" transform="translate(68,91)"/>
<path d="M0 0 C0 0.33 0 0.66 0 1 C-3.63 1 -7.26 1 -11 1 C-11 1.66 -11 2.32 -11 3 C-13.6246601 3.19430855 -16.24946765 3.38073238 -18.875 3.5625 C-19.99455078 3.64661133 -19.99455078 3.64661133 -21.13671875 3.73242188 C-26.7734375 4.11328125 -26.7734375 4.11328125 -29 3 C-29 2.34 -29 1.68 -29 1 C-19.31629705 0.30386731 -9.71614177 -0.14973506 0 0 Z " fill="#9E9E9C" transform="translate(160,110)"/>
<path d="M0 0 C1.74991334 -0.02715383 3.49994945 -0.04646551 5.25 -0.0625 C6.71179688 -0.07990234 6.71179688 -0.07990234 8.203125 -0.09765625 C10.65758678 -0.01195577 12.66168914 0.29293934 15 1 C15 1.66 15 2.32 15 3 C11.37 3 7.74 3 4 3 C4 4.32 4 5.64 4 7 C4.66 7 5.32 7 6 7 C6 7.66 6 8.32 6 9 C5.01 8.67 4.02 8.34 3 8 C3 7.01 3 6.02 3 5 C2.01 5.33 1.02 5.66 0 6 C0 4.02 0 2.04 0 0 Z " fill="#9F9F9F" transform="translate(180,163)"/>
<path d="M0 0 C6.93 0 13.86 0 21 0 C17.72916542 3.27083458 17.41273402 3.3814323 13.11328125 3.51171875 C12.17548828 3.54716797 11.23769531 3.58261719 10.27148438 3.61914062 C9.29501953 3.64169922 8.31855469 3.66425781 7.3125 3.6875 C5.83040039 3.73874023 5.83040039 3.73874023 4.31835938 3.79101562 C1.87901947 3.87350538 -0.55996063 3.94265068 -3 4 C-2.67 3.34 -2.34 2.68 -2 2 C-1.34 2 -0.68 2 0 2 C0 1.34 0 0.68 0 0 Z " fill="#BCBCBC" transform="translate(126,175)"/>
<path d="M0 0 C0.69311279 0.15847412 1.38622559 0.31694824 2.1003418 0.48022461 C5.22964465 1.04116473 8.21741889 1.21100442 11.39453125 1.31640625 C13.19760742 1.37924805 13.19760742 1.37924805 15.03710938 1.44335938 C16.90592773 1.50233398 16.90592773 1.50233398 18.8125 1.5625 C20.71032227 1.62727539 20.71032227 1.62727539 22.64648438 1.69335938 C25.76421889 1.7992447 28.88203035 1.90132405 32 2 C32 2.33 32 2.66 32 3 C8.31578947 6.15789474 8.31578947 6.15789474 0 2 C0 1.34 0 0.68 0 0 Z " fill="#959595" transform="translate(133,92)"/>
<path d="M0 0 C1.35432675 1.31200404 2.68733482 2.64631404 4 4 C4 4.33 4 4.66 4 5 C-4.6612586 6.25981943 -13.27001243 6.09020653 -22 6 C-22 5.67 -22 5.34 -22 5 C-17.71 5 -13.42 5 -9 5 C-9 4.34 -9 3.68 -9 3 C-5.92382812 2.70703125 -5.92382812 2.70703125 -2.84765625 2.4140625 C-2.23792969 2.27742187 -1.62820312 2.14078125 -1 2 C-0.67 1.34 -0.34 0.68 0 0 Z " fill="#9B9A99" transform="translate(130,133)"/>
<path d="M0 0 C0.33 0.99 0.66 1.98 1 3 C2.0209375 3.7425 2.0209375 3.7425 3.0625 4.5 C3.701875 4.995 4.34125 5.49 5 6 C5 6.99 5 7.98 5 9 C2.03 8.505 2.03 8.505 -1 8 C-1 7.34 -1 6.68 -1 6 C-2.65 5.67 -4.3 5.34 -6 5 C-5.6875 3.0625 -5.6875 3.0625 -5 1 C-2 0 -2 0 0 0 Z " fill="#A09484" transform="translate(183,168)"/>
<path d="M0 0 C1.32 0.33 2.64 0.66 4 1 C4 1.66 4 2.32 4 3 C6.97 3.495 6.97 3.495 10 4 C10 3.34 10 2.68 10 2 C10.66 2 11.32 2 12 2 C11.67 3.65 11.34 5.3 11 7 C8.525 6.505 8.525 6.505 6 6 C6 5.34 6 4.68 6 4 C0.72 4 -4.56 4 -10 4 C-10 3.34 -10 2.68 -10 2 C-6.7 2 -3.4 2 0 2 C0 1.34 0 0.68 0 0 Z " fill="#E3E3E2" transform="translate(178,173)"/>
<path d="M0 0 C2.64680904 0.11339204 5.29177518 0.24012873 7.9375 0.375 C9.06961914 0.42140625 9.06961914 0.42140625 10.22460938 0.46875 C12.15507395 0.5726315 14.07942081 0.77895614 16 1 C16.33 1.66 16.66 2.32 17 3 C16.01 3 15.02 3 14 3 C14.66 3.66 15.32 4.32 16 5 C11.38 5 6.76 5 2 5 C1.34 3.35 0.68 1.7 0 0 Z " fill="#C6C2B7" transform="translate(154,133)"/>
<path d="M0 0 C11.17434943 -0.34207192 21.13479671 0.06534702 32 3 C32 3.33 32 3.66 32 4 C26.82393118 4.21566953 22.47825024 3.95547609 17.4609375 2.51171875 C11.76389917 1.32709649 5.80415063 1.28718454 0 1 C0 0.67 0 0.34 0 0 Z " fill="#8C8C8C" transform="translate(129,176)"/>
<path d="M0 0 C6.6 0.33 13.2 0.66 20 1 C20 1.66 20 2.32 20 3 C12.74 3 5.48 3 -2 3 C-1.34 2.67 -0.68 2.34 0 2 C0 1.34 0 0.68 0 0 Z " fill="#A1A1A1" transform="translate(109,65)"/>
<path d="M0 0 C1.95803507 -0.05389087 3.91648909 -0.09274217 5.875 -0.125 C7.51082031 -0.15980469 7.51082031 -0.15980469 9.1796875 -0.1953125 C12 0 12 0 14 2 C16.31765729 2.71927295 18.65095874 3.3909893 21 4 C17.18483536 5.30062431 13.72438237 4.89369853 9.75 4.5625 C8.48671875 4.46066406 7.2234375 4.35882813 5.921875 4.25390625 C4.95765625 4.17011719 3.9934375 4.08632812 3 4 C3 3.67 3 3.34 3 3 C4.65 2.67 6.3 2.34 8 2 C5.03 2 2.06 2 -1 2 C-0.67 1.34 -0.34 0.68 0 0 Z " fill="#C5C5C5" transform="translate(82,120)"/>
<path d="M0 0 C8.40215965 -0.11039334 16.64736824 0.04541351 25 1 C25 1.33 25 1.66 25 2 C6.13138686 4.04379562 6.13138686 4.04379562 0 2 C0 1.34 0 0.68 0 0 Z " fill="#A7A7A7" transform="translate(141,67)"/>
<path d="M0 0 C1.32 0 2.64 0 4 0 C4 0.66 4 1.32 4 2 C8.455 1.505 8.455 1.505 13 1 C13 1.66 13 2.32 13 3 C15.97 3.33 18.94 3.66 22 4 C22 4.66 22 5.32 22 6 C19.95775363 5.88485851 17.91619841 5.75742674 15.875 5.625 C14.73804687 5.55539063 13.60109375 5.48578125 12.4296875 5.4140625 C9.04606384 5.00556124 6.18387559 4.19032431 3 3 C3 2.34 3 1.68 3 1 C2.01 0.67 1.02 0.34 0 0 Z " fill="#C4C4C4" transform="translate(113,39)"/>
<path d="M0 0 C1.43739513 -0.02712066 2.87493863 -0.04645067 4.3125 -0.0625 C5.51326172 -0.07990234 5.51326172 -0.07990234 6.73828125 -0.09765625 C9 0 9 0 12 1 C12 1.66 12 2.32 12 3 C13.32 3.33 14.64 3.66 16 4 C16 4.99 16 5.98 16 7 C14.88625 6.5359375 14.88625 6.5359375 13.75 6.0625 C8.55297775 4.59001036 3.37512737 4.33050945 -2 4 C-2 3.67 -2 3.34 -2 3 C1.3 2.67 4.6 2.34 8 2 C5.36 1.67 2.72 1.34 0 1 C0 0.67 0 0.34 0 0 Z " fill="#C1C1C1" transform="translate(86,161)"/>
<path d="M0 0 C4.95 0 9.9 0 15 0 C14.01 0.495 14.01 0.495 13 1 C13 1.66 13 2.32 13 3 C8.71 3 4.42 3 0 3 C0 2.01 0 1.02 0 0 Z " fill="#9E9E9E" transform="translate(61,110)"/>
<path d="M0 0 C2.64 0 5.28 0 8 0 C8 0.66 8 1.32 8 2 C10.97 2.33 13.94 2.66 17 3 C17 3.33 17 3.66 17 4 C14.69 4 12.38 4 10 4 C9.67 4.66 9.34 5.32 9 6 C6.36 5.34 3.72 4.68 1 4 C1.66 3.34 2.32 2.68 3 2 C2.01 2 1.02 2 0 2 C0 1.34 0 0.68 0 0 Z " fill="#BABABA" transform="translate(138,38)"/>
<path d="M0 0 C7.42686315 -0.10331031 14.63512596 0.00137301 22 1 C22 1.66 22 2.32 22 3 C18.37 3 14.74 3 11 3 C11 2.34 11 1.68 11 1 C7.37 1.33 3.74 1.66 0 2 C0 1.34 0 0.68 0 0 Z " fill="#9B9B9B" transform="translate(109,80)"/>
<path d="M0 0 C4.29 0 8.58 0 13 0 C13 0.99 13 1.98 13 3 C13.99 3.33 14.98 3.66 16 4 C15.34 3.835 14.68 3.67 14 3.5 C8.19078047 2.53179675 2.74808065 2.85038387 -3 4 C-3 3.34 -3 2.68 -3 2 C-2.01 2 -1.02 2 0 2 C0 1.34 0 0.68 0 0 Z " fill="#9E9D9A" transform="translate(133,147)"/>
<path d="M0 0 C4.54052344 -0.46331872 7.2520726 -0.17990558 10.9375 2.4375 C11.948125 3.283125 12.95875 4.12875 14 5 C14 5.33 14 5.66 14 6 C12.02 6 10.04 6 8 6 C8 5.34 8 4.68 8 4 C3.545 3.01 3.545 3.01 -1 2 C-0.67 1.34 -0.34 0.68 0 0 Z " fill="#8B7962" transform="translate(165,165)"/>
<path d="M0 0 C0 0.66 0 1.32 0 2 C0.99 2.33 1.98 2.66 3 3 C1.58461283 3.33872513 0.16762037 3.67074624 -1.25 4 C-2.03890625 4.185625 -2.8278125 4.37125 -3.640625 4.5625 C-6 5 -6 5 -10 5 C-10 4.01 -10 3.02 -10 2 C-6.38026598 0.68373308 -3.90432869 0 0 0 Z " fill="#B2B2B2" transform="translate(104,136)"/>
<path d="M0 0 C0 0.66 0 1.32 0 2 C-4.76307437 2.95261487 -9.1666528 3.08333357 -14 3 C-14 3.66 -14 4.32 -14 5 C-14.99 5 -15.98 5 -17 5 C-17.33 4.01 -17.66 3.02 -18 2 C-11.88019467 0.59545452 -6.28260706 -0.23268915 0 0 Z " fill="#A1A19E" transform="translate(131,92)"/>
<path d="M0 0 C2.29141286 -0.05384521 4.58318188 -0.09272087 6.875 -0.125 C8.78925781 -0.15980469 8.78925781 -0.15980469 10.7421875 -0.1953125 C14 0 14 0 16 2 C7.585 2.495 7.585 2.495 -1 3 C-0.67 2.01 -0.34 1.02 0 0 Z " fill="#A0A0A0" transform="translate(80,162)"/>
<path d="M0 0 C0.66 0.99 1.32 1.98 2 3 C-2.49656104 5.24828052 -6.07872966 5.16682272 -11 5 C-10.67 4.01 -10.34 3.02 -10 2 C-6.7 1.34 -3.4 0.68 0 0 Z " fill="#91908E" transform="translate(72,78)"/>
<path d="M0 0 C0.8353125 0.4640625 0.8353125 0.4640625 1.6875 0.9375 C0.635625 0.89625 -0.41625 0.855 -1.5 0.8125 C-5.11859469 0.93114245 -7.06472966 1.53305877 -10.3125 2.9375 C-11.6325 2.9375 -12.9525 2.9375 -14.3125 2.9375 C-14.3125 2.2775 -14.3125 1.6175 -14.3125 0.9375 C-8.69628236 -1.81554786 -5.87215016 -2.69801494 0 0 Z " fill="#868686" transform="translate(107.3125,40.0625)"/>
<path d="M0 0 C0.75410156 0.09990234 1.50820312 0.19980469 2.28515625 0.30273438 C4.14917753 0.55048404 6.01219288 0.80578057 7.875 1.0625 C7.875 1.3925 7.875 1.7225 7.875 2.0625 C2.265 2.0625 -3.345 2.0625 -9.125 2.0625 C-9.455 1.4025 -9.785 0.7425 -10.125 0.0625 C-6.87932383 -1.56033808 -3.48660376 -0.48475234 0 0 Z " fill="#A4A3A2" transform="translate(161.125,165.9375)"/>
<path d="M0 0 C4.95 0 9.9 0 15 0 C15 0.66 15 1.32 15 2 C11.7 2 8.4 2 5 2 C5.33 3.32 5.66 4.64 6 6 C3.97945196 4.35830472 1.97956942 2.69088222 0 1 C0 0.67 0 0.34 0 0 Z " fill="#E7E6E3" transform="translate(173,151)"/>
<path d="M0 0 C3.875 0.875 3.875 0.875 5 2 C5.66 1.67 6.32 1.34 7 1 C7 1.66 7 2.32 7 3 C7.66 3.33 8.32 3.66 9 4 C8.34 4 7.68 4 7 4 C8.36983503 7.16115776 8.9890638 7.9927092 12 10 C9.69 10 7.38 10 5 10 C5.33 9.01 5.66 8.02 6 7 C5.2575 6.319375 5.2575 6.319375 4.5 5.625 C3 4 3 4 3 2 C2.01 1.67 1.02 1.34 0 1 C0 0.67 0 0.34 0 0 Z " fill="#B6AA8D" transform="translate(80,87)"/>
<path d="M0 0 C0.99 0.33 1.98 0.66 3 1 C3 1.66 3 2.32 3 3 C3.99 3.66 4.98 4.32 6 5 C1.545 5.495 1.545 5.495 -3 6 C-3 5.34 -3 4.68 -3 4 C-4.98 4 -6.96 4 -9 4 C-9 3.67 -9 3.34 -9 3 C-6.03 3 -3.06 3 0 3 C0 2.01 0 1.02 0 0 Z " fill="#BAB6AF" transform="translate(103,108)"/>
<path d="M0 0 C6.875 0.875 6.875 0.875 8 2 C10.01594582 2.23427778 12.038474 2.41336124 14.0625 2.5625 C15.16722656 2.64628906 16.27195313 2.73007813 17.41015625 2.81640625 C18.26480469 2.87699219 19.11945313 2.93757813 20 3 C20 3.33 20 3.66 20 4 C17.79194476 4.0544452 15.58349446 4.09299283 13.375 4.125 C12.14523438 4.14820312 10.91546875 4.17140625 9.6484375 4.1953125 C6.05683959 4.0030428 3.33338825 3.30258556 0 2 C0 1.34 0 0.68 0 0 Z " fill="#919191" transform="translate(162,80)"/>
<path d="M0 0 C0.66 0 1.32 0 2 0 C2.33 0.66 2.66 1.32 3 2 C3.99 2.33 4.98 2.66 6 3 C5.67 3.99 5.34 4.98 5 6 C3.35 6.33 1.7 6.66 0 7 C-1.125 2.25 -1.125 2.25 0 0 Z " fill="#8B605E" transform="translate(5,12)"/>
<path d="M0 0 C-1.32 0.33 -2.64 0.66 -4 1 C-4 1.66 -4 2.32 -4 3 C-2.68 3.33 -1.36 3.66 0 4 C-1.98 4 -3.96 4 -6 4 C-6 3.34 -6 2.68 -6 2 C-9.63 2 -13.26 2 -17 2 C-17 1.67 -17 1.34 -17 1 C-11.30494264 0.3583034 -5.73266804 -0.12462322 0 0 Z " fill="#CFCFCF" transform="translate(166,79)"/>
<path d="M0 0 C2 1.375 2 1.375 4 3 C4 3.66 4 4.32 4 5 C5.32 5.66 6.64 6.32 8 7 C8 7.66 8 8.32 8 9 C5.525 8.01 5.525 8.01 3 7 C3 6.34 3 5.68 3 5 C1.68 4.34 0.36 3.68 -1 3 C-0.67 2.01 -0.34 1.02 0 0 Z " fill="#A7905A" transform="translate(70,73)"/>
<path d="M0 0 C1.89492187 0.15275391 1.89492187 0.15275391 3.828125 0.30859375 C4.79234375 0.39238281 5.7565625 0.47617188 6.75 0.5625 C6.75 0.8925 6.75 1.2225 6.75 1.5625 C0.81 1.8925 -5.13 2.2225 -11.25 2.5625 C-11.25 1.9025 -11.25 1.2425 -11.25 0.5625 C-7.43483536 -0.73812431 -3.97438237 -0.33119853 0 0 Z " fill="#B6B6B6" transform="translate(78.25,138.4375)"/>
<path d="M0 0 C0 0.33 0 0.66 0 1 C-4.95 1.33 -9.9 1.66 -15 2 C-15.33 2.99 -15.66 3.98 -16 5 C-17.02104551 4.02149805 -18.0206121 3.02019573 -19 2 C-19 1.67 -19 1.34 -19 1 C-12.62694402 0.25492456 -6.41688675 -0.10349817 0 0 Z " fill="#E8E7E4" transform="translate(167,126)"/>
<path d="M0 0 C0 0.66 0 1.32 0 2 C0.66 2.33 1.32 2.66 2 3 C-0.31 3.66 -2.62 4.32 -5 5 C-5.33 3.68 -5.66 2.36 -6 1 C-3 0 -3 0 0 0 Z " fill="#D0D5DB" transform="translate(33,17)"/>
<path d="M0 0 C10.55808656 -0.55353075 10.55808656 -0.55353075 15 3 C11.98968256 3.93423645 11.13349732 4.04449911 8 3 C8 2.34 8 1.68 8 1 C5.36 1 2.72 1 0 1 C0 0.67 0 0.34 0 0 Z " fill="#979797" transform="translate(67,151)"/>
<path d="M0 0 C0.79921875 0.01804687 1.5984375 0.03609375 2.421875 0.0546875 C3.02515625 0.07789062 3.6284375 0.10109375 4.25 0.125 C3.92 0.785 3.59 1.445 3.25 2.125 C0.52734375 2.7578125 0.52734375 2.7578125 -2.8125 3.25 C-3.91722656 3.41757813 -5.02195312 3.58515625 -6.16015625 3.7578125 C-7.44212891 3.93957031 -7.44212891 3.93957031 -8.75 4.125 C-8.75 3.465 -8.75 2.805 -8.75 2.125 C-5.68753253 0.34090198 -3.52920727 -0.10380021 0 0 Z " fill="#A2A19C" transform="translate(91.75,64.875)"/>
<path d="M0 0 C0 0.33 0 0.66 0 1 C-5.12919186 3.10428384 -9.5610835 3.21755666 -15 3 C-11.07677056 -0.92322944 -5.25785342 -0.10515707 0 0 Z " fill="#959595" transform="translate(177,176)"/>
<path d="M0 0 C-2.52475462 1.26237731 -4.31200466 1.09856404 -7.125 1.0625 C-8.03507812 1.05347656 -8.94515625 1.04445312 -9.8828125 1.03515625 C-10.58148438 1.02355469 -11.28015625 1.01195312 -12 1 C-12 0.34 -12 -0.32 -12 -1 C-3.42857143 -2.42857143 -3.42857143 -2.42857143 0 0 Z " fill="#9E9E9E" transform="translate(129,167)"/>
<path d="M0 0 C0.99 0.33 1.98 0.66 3 1 C3.33 2.98 3.66 4.96 4 7 C4.66 7 5.32 7 6 7 C6 7.66 6 8.32 6 9 C5.01 8.67 4.02 8.34 3 8 C3 7.01 3 6.02 3 5 C2.01 5.33 1.02 5.66 0 6 C0 4.02 0 2.04 0 0 Z " fill="#BBAE99" transform="translate(180,163)"/>
<path d="M0 0 C3.40320742 1.01176437 4.75725331 1.64843582 6.8125 4.625 C7.204375 5.40875 7.59625 6.1925 8 7 C5.69 6.34 3.38 5.68 1 5 C0.67 3.35 0.34 1.7 0 0 Z " fill="#A28B57" transform="translate(87,91)"/>
<path d="M0 0 C1.32 0.33 2.64 0.66 4 1 C4 1.66 4 2.32 4 3 C4.66 3.33 5.32 3.66 6 4 C2.37 4 -1.26 4 -5 4 C-3.68 3.67 -2.36 3.34 -1 3 C-0.67 2.01 -0.34 1.02 0 0 Z " fill="#ABABAB" transform="translate(68,91)"/>
<path d="M0 0 C1.32 0 2.64 0 4 0 C4 0.66 4 1.32 4 2 C6.97 2.495 6.97 2.495 10 3 C10 3.66 10 4.32 10 5 C8.02 5 6.04 5 4 5 C4 4.34 4 3.68 4 3 C2.68 2.67 1.36 2.34 0 2 C0 1.34 0 0.68 0 0 Z " fill="#787878" transform="translate(112,40)"/>
<path d="M0 0 C-0.639375 0.309375 -1.27875 0.61875 -1.9375 0.9375 C-3.93610821 1.8345163 -3.93610821 1.8345163 -5 3 C-7.33297433 3.04092937 -9.66705225 3.04241723 -12 3 C-12 2.34 -12 1.68 -12 1 C-8.0186217 -0.3271261 -4.14954773 -0.06915913 0 0 Z " fill="#A2A2A1" transform="translate(79,181)"/>
<path d="M0 0 C0 0.66 0 1.32 0 2 C-2.31 2.33 -4.62 2.66 -7 3 C-7 3.99 -7 4.98 -7 6 C-8.32 5.67 -9.64 5.34 -11 5 C-10.67 3.68 -10.34 2.36 -10 1 C-2.25 0 -2.25 0 0 0 Z " fill="#DDDBD5" transform="translate(127,94)"/>
<path d="M0 0 C2.25133315 1.52509665 2.93983891 2.81834728 3.9375 5.3125 C0.47824837 4.0633258 -2.20943203 2.63722205 -5.0625 0.3125 C-2.0625 -0.6875 -2.0625 -0.6875 0 0 Z " fill="#A9915B" transform="translate(54.0625,57.6875)"/>
<path d="M0 0 C1.0209375 0.2165625 1.0209375 0.2165625 2.0625 0.4375 C5.36273082 1.06945909 8.67144426 1.54313941 12 2 C11 4 11 4 8.25 4.9375 C5 5 5 5 2.125 2.5625 C1.42375 1.716875 0.7225 0.87125 0 0 Z " fill="#AF9A6E" transform="translate(159,161)"/>
<path d="M0 0 C-0.33 0.66 -0.66 1.32 -1 2 C-4.96 1.67 -8.92 1.34 -13 1 C-13 0.67 -13 0.34 -13 0 C-11.58456585 -0.19658808 -10.16755969 -0.38187546 -8.75 -0.5625 C-7.96109375 -0.66691406 -7.1721875 -0.77132812 -6.359375 -0.87890625 C-3.99467126 -1.00027349 -2.2488963 -0.69633257 0 0 Z " fill="#B7B7B7" transform="translate(169,95)"/>
<path d="M0 0 C0.99 0 1.98 0 3 0 C2.814375 0.78375 2.62875 1.5675 2.4375 2.375 C1.74037734 4.97089775 1.74037734 4.97089775 3 7 C1.68 6.34 0.36 5.68 -1 5 C-1 1 -1 1 0 0 Z " fill="#D8C079" transform="translate(107,93)"/>
<path d="M0 0 C2.64 0 5.28 0 8 0 C8 0.66 8 1.32 8 2 C3.545 2.495 3.545 2.495 -1 3 C-0.67 2.01 -0.34 1.02 0 0 Z " fill="#A1A1A1" transform="translate(132,65)"/>
<path d="M0 0 C1.98 0 3.96 0 6 0 C6 0.99 6 1.98 6 3 C3.69 3 1.38 3 -1 3 C-0.67 2.01 -0.34 1.02 0 0 Z " fill="#AEAEAE" transform="translate(160,40)"/>
<path d="M0 0 C0.66 0 1.32 0 2 0 C2 0.99 2 1.98 2 3 C2.99 3 3.98 3 5 3 C5 3.66 5 4.32 5 5 C2.03 4.67 -0.94 4.34 -4 4 C-3.34 3.525625 -2.68 3.05125 -2 2.5625 C-1.34 2.046875 -0.68 1.53125 0 1 C0 0.67 0 0.34 0 0 Z " fill="#B9B5AB" transform="translate(115,120)"/>
<path d="M0 0 C0.66 0 1.32 0 2 0 C1.67 1.65 1.34 3.3 1 5 C-0.65 4.67 -2.3 4.34 -4 4 C-3.67 3.01 -3.34 2.02 -3 1 C-2.01 1.33 -1.02 1.66 0 2 C0 1.34 0 0.68 0 0 Z " fill="#D6D6D6" transform="translate(188,175)"/>
<path d="M0 0 C-0.99 0.495 -0.99 0.495 -2 1 C-2 1.66 -2 2.32 -2 3 C-3.98 3 -5.96 3 -8 3 C-8 2.34 -8 1.68 -8 1 C-5.29120665 -0.35439668 -2.99066732 -0.06501451 0 0 Z " fill="#AFAFAF" transform="translate(82,110)"/>
<path d="M0 0 C0.99 0 1.98 0 3 0 C3 0.66 3 1.32 3 2 C5.64 2 8.28 2 11 2 C11 2.33 11 2.66 11 3 C7.04 3 3.08 3 -1 3 C-0.67 2.01 -0.34 1.02 0 0 Z " fill="#838383" transform="translate(126,40)"/>
<path d="M0 0 C0.99 0 1.98 0 3 0 C3.33 1.98 3.66 3.96 4 6 C3.67 5.34 3.34 4.68 3 4 C1.68 4.33 0.36 4.66 -1 5 C-0.67 3.35 -0.34 1.7 0 0 Z " fill="#C59698" transform="translate(17,5)"/>
<path d="M0 0 C1.98 0.99 3.96 1.98 6 3 C6 3.66 6 4.32 6 5 C4.02 5 2.04 5 0 5 C0.66 4.67 1.32 4.34 2 4 C2 3.34 2 2.68 2 2 C1.34 2 0.68 2 0 2 C0 1.34 0 0.68 0 0 Z " fill="#9C8756" transform="translate(104,107)"/>
<path d="M0 0 C2.97 0.33 5.94 0.66 9 1 C9 1.33 9 1.66 9 2 C6.69 2 4.38 2 2 2 C1.67 2.66 1.34 3.32 1 4 C0.01 3.34 -0.98 2.68 -2 2 C-1.34 2 -0.68 2 0 2 C0 1.34 0 0.68 0 0 Z " fill="#C5C5C5" transform="translate(146,40)"/>
<path d="M0 0 C0.66 0.33 1.32 0.66 2 1 C2 3 2 3 0.125 5.0625 C-2 7 -2 7 -4 8 C-3.50168276 4.31245243 -2.89932357 2.39509338 0 0 Z " fill="#D6BE70" transform="translate(35,20)"/>
</svg>
