<?xml version="1.0" encoding="UTF-8"?>
<svg version="1.1" xmlns="http://www.w3.org/2000/svg" width="121" height="147">
<path d="M0 0 C4.12947514 2.06473757 5.97191841 3.90129224 9 7.3125 C9.845625 8.25738281 10.69125 9.20226563 11.5625 10.17578125 C13.77367358 12.73776603 15.90745433 15.34072322 18 18 C18.33 15.03 18.66 12.06 19 9 C48.04 9 77.08 9 107 9 C107 51.24 107 93.48 107 137 C85.4984375 137.0309375 85.4984375 137.0309375 63.5625 137.0625 C59.02959229 137.071604 54.49668457 137.08070801 49.82641602 137.09008789 C44.30847168 137.09460449 44.30847168 137.09460449 41.72862244 137.09544373 C39.91949722 137.09698341 38.11037305 137.10050882 36.30125427 137.10557556 C33.56743577 137.112852 30.83368019 137.11390745 28.09985352 137.11352539 C26.88267938 137.11892255 26.88267938 137.11892255 25.64091587 137.12442875 C20.11402634 137.11402634 20.11402634 137.11402634 19 136 C18.95454736 132.88722053 18.97340874 129.79673547 19.03271484 126.68530273 C19.06215687 124.65458643 19.09087991 122.6238596 19.11898804 120.59312439 C19.13501446 119.50907759 19.15104088 118.42503078 19.16755295 117.30813408 C19.25689999 110.35853598 19.27542783 103.40833419 19.30389977 96.45826626 C19.33287821 90.35713632 19.388478 84.25859931 19.50390625 78.15844727 C19.61418709 72.25603835 19.64971135 66.35721947 19.63640213 60.45384407 C19.64434042 58.21440609 19.67849413 55.97488692 19.74058151 53.7362957 C20.02390768 43.00525251 20.16297802 34.31490127 12.78400612 25.94104862 C10.23254704 23.36152109 7.58552057 20.94575161 4.82010269 18.59817696 C2.15524696 16.25824798 -0.10959514 13.6732036 -2.4375 11 C-3.13746094 10.21625 -3.83742188 9.4325 -4.55859375 8.625 C-5.03425781 8.08875 -5.50992187 7.5525 -6 7 C-4.02 4.69 -2.04 2.38 0 0 Z " fill="#F7F7F7" transform="translate(8,3)"/>
<path d="M0 0 C4.07821252 2.03910626 5.83516013 3.75849603 8.8125 7.125 C9.47813965 7.87185059 9.47813965 7.87185059 10.15722656 8.63378906 C13.09243383 11.93509905 15.9786316 15.27902062 18.8671875 18.62109375 C20.71862378 20.68615729 22.60182045 22.70822154 24.5078125 24.72265625 C25.14170898 25.39393555 25.77560547 26.06521484 26.42871094 26.75683594 C27.71156841 28.11178576 28.99859263 29.4628044 30.29003906 30.80957031 C30.88268555 31.43573242 31.47533203 32.06189453 32.0859375 32.70703125 C32.6226709 33.2688208 33.1594043 33.83061035 33.71240234 34.40942383 C35 36 35 36 36 39 C37.23234375 38.66355469 38.4646875 38.32710937 39.734375 37.98046875 C45.6254408 36.67377777 51.26023984 36.96949034 57.25 37.3125 C58.3121875 37.36083984 59.374375 37.40917969 60.46875 37.45898438 C68.25578416 37.84540127 68.25578416 37.84540127 71.49389648 38.51806641 C74.22836374 39.04391525 76.73639122 39.11320452 79.51953125 39.09765625 C81.0519043 39.09282227 81.0519043 39.09282227 82.61523438 39.08789062 C84.19788086 39.07532227 84.19788086 39.07532227 85.8125 39.0625 C87.42415039 39.05573242 87.42415039 39.05573242 89.06835938 39.04882812 C91.71229683 39.03707729 94.35611952 39.02064787 97 39 C97 39.33 97 39.66 97 40 C94.62515638 40.16920005 92.25016522 40.33542863 89.875 40.5 C89.20984375 40.54769531 88.5446875 40.59539063 87.859375 40.64453125 C84.79427787 40.85488105 81.76837685 40.99780971 78.6953125 40.96875 C75.89918411 40.86404528 75.89918411 40.86404528 73 42 C72.30003906 41.69191406 71.60007812 41.38382813 70.87890625 41.06640625 C66.85882487 39.5772852 63.18274452 39.82443053 58.9375 39.9375 C57.34254182 39.97208945 55.74747867 40.00219224 54.15234375 40.02734375 C53.1003479 40.05429321 53.1003479 40.05429321 52.02709961 40.08178711 C50 40 50 40 47.97485352 39.47094727 C44.89335019 38.73609501 42.08249964 39.46649045 39 40 C42.33562767 44.51290803 44.33289301 46.68206814 50 48 C49.01 48.33 48.02 48.66 47 49 C49.0706428 52.43519517 49.0706428 52.43519517 52 55 C55.7174474 55.53255567 59.26996191 55.35275316 63 55 C59.77208445 57.1519437 58.71599191 57.20086443 55 57 C56.74262528 60.81862234 58.61617286 63.47813756 62 66 C67.23211019 66.76645358 72.23371278 66.42463396 77.49365234 66.09765625 C81.71924782 65.93301197 85.9092661 66.2195424 90.125 66.5 C90.91302002 66.54833984 91.70104004 66.59667969 92.51293945 66.64648438 C94.34226714 66.75944879 96.17118995 66.87894402 98 67 C98 67.33 98 67.66 98 68 C97.2793335 67.98952637 96.55866699 67.97905273 95.81616211 67.96826172 C92.52331079 67.92646285 89.2305155 67.90059812 85.9375 67.875 C84.2369043 67.84986328 84.2369043 67.84986328 82.50195312 67.82421875 C76.59960616 67.78980273 71.55932973 67.95055189 66 70 C67.27586673 72.69834209 67.27586673 72.69834209 70 75 C73.59415147 75.64508453 77.11296662 75.46989492 80.75 75.3125 C81.73355469 75.28994141 82.71710938 75.26738281 83.73046875 75.24414062 C86.1551947 75.18528805 88.57681983 75.10313431 91 75 C89 77 89 77 86.57421875 77.16015625 C85.62160156 77.12792969 84.66898437 77.09570312 83.6875 77.0625 C79.93516077 76.94475948 76.66064114 77.13984935 73 78 C78.63260767 83.63260767 90.5452656 82.59704138 98 83 C98 83.33 98 83.66 98 84 C91.73 84 85.46 84 79 84 C83.02148772 89.87294836 83.02148772 89.87294836 86.2199707 90.77294922 C86.94788818 90.78342285 87.67580566 90.79389648 88.42578125 90.8046875 C89.22177734 90.83046875 90.01777344 90.85625 90.83789062 90.8828125 C92.06282227 90.87894531 92.06282227 90.87894531 93.3125 90.875 C94.14845703 90.895625 94.98441406 90.91625 95.84570312 90.9375 C97.8967055 90.98438005 99.94846635 90.99573929 102 91 C102 91.33 102 91.66 102 92 C97.05 92.33 92.1 92.66 87 93 C87.99 94.65 88.98 96.3 90 98 C90 98.66 90 99.32 90 100 C92.31 100 94.62 100 97 100 C97.33 100.66 97.66 101.32 98 102 C96.02 102 94.04 102 92 102 C92.99 105.465 92.99 105.465 94 109 C93.41734375 108.66226563 92.8346875 108.32453125 92.234375 107.9765625 C82.42043723 102.63753346 71.50700417 100.41011667 60.5 103 C54.96014495 104.30294391 50.43587368 104.72107093 45.125 102.4375 C40.59038958 100.5347419 36.73760954 101.08976483 32 102 C32.495 100.515 32.495 100.515 33 99 C34.58294782 98.94562393 36.16644256 98.90703729 37.75 98.875 C38.63171875 98.85179688 39.5134375 98.82859375 40.421875 98.8046875 C43 99 43 99 44.91796875 99.99609375 C47.84624885 101.40804119 50.33181408 101.22792952 53.5625 101.1875 C54.69816406 101.18105469 55.83382812 101.17460938 57.00390625 101.16796875 C60.05175207 101.12865471 60.05175207 101.12865471 63 100 C68.7510492 99.65815442 74.33371064 100.01455837 80 101 C75.65988455 95.07324902 75.65988455 95.07324902 69.25 91.9375 C65.98701628 91.83881192 65.98701628 91.83881192 63 93 C60.60708854 93.20437678 58.21034394 93.36531669 55.8125 93.5 C50.50689999 93.81561976 45.26263169 94.24819547 40 95 C44.16341655 90.83658345 50.31876459 91.69700061 55.89257812 91.48242188 C60.54996365 91.24889166 64.55877039 90.43396564 69 89 C67.72273329 86.75076361 67.72273329 86.75076361 65 85 C61.22317539 84.62694222 57.52544291 84.94815621 53.75 85.25 C52.71875 85.31574219 51.6875 85.38148437 50.625 85.44921875 C48.08145555 85.61407811 45.54084512 85.79830535 43 86 C43 85.34 43 84.68 43 84 C49.32126362 83.16511613 55.64780958 82.54881057 62 82 C60.42151812 79.3829478 60.42151812 79.3829478 58 77 C54.96339709 76.47031909 54.96339709 76.47031909 51.6875 76.8125 C44.53154153 77.12432389 44.53154153 77.12432389 41.125 75.875 C37.132973 74.75723244 34.8937418 75.7741924 31 77 C28.0625 76.625 28.0625 76.625 26 76 C29.5633575 73.62442834 31.69792186 73.55250925 35.9375 73.25 C37.16339844 73.15203125 38.38929687 73.0540625 39.65234375 72.953125 C42.96213964 72.99946987 44.20545768 73.45356482 47 75 C50.68203915 74.68873287 50.68203915 74.68873287 54 74 C53.08216876 71.3549963 53.08216876 71.3549963 51 69 C48.20625708 68.53162101 45.85778964 68.76575495 43 69 C43 68.34 43 67.68 43 67 C45.475 66.505 45.475 66.505 48 66 C47.07038578 64.84775972 46.1309875 63.70340824 45.1875 62.5625 C44.40439453 61.60537109 44.40439453 61.60537109 43.60546875 60.62890625 C41.99165589 58.7451725 41.99165589 58.7451725 39 58 C37.45819274 55.62304714 36.10638236 53.20716564 34.8125 50.6875 C32.59277349 48.62085808 31.77075649 48.7552082 28.8125 48.75 C27.554375 48.8325 26.29625 48.915 25 49 C25 48.34 25 47.68 25 47 C27.475 46.505 27.475 46.505 30 46 C29.36384766 45.38125 29.36384766 45.38125 28.71484375 44.75 C24.99149518 41.08393372 21.48237081 37.31070226 18.0703125 33.35546875 C15.49078779 30.42065102 12.84316888 27.55334478 10.1875 24.6875 C4.75495792 18.82447077 -0.63398252 12.92398833 -6 7 C-4.02 4.69 -2.04 2.38 0 0 Z " fill="#BBA05C" transform="translate(8,3)"/>
<path d="M0 0 C4.35626671 4.29717006 8.55926327 8.72926944 12.75 13.1875 C13.81190552 14.31599365 13.81190552 14.31599365 14.89526367 15.46728516 C19.42807586 20.29543344 23.90680034 25.16208919 28.30078125 30.1171875 C29.95822806 32.0042829 29.95822806 32.0042829 31.73046875 33.6328125 C33 35 33 35 33 37 C34.23234375 36.66355469 35.4646875 36.32710937 36.734375 35.98046875 C42.6254408 34.67377777 48.26023984 34.96949034 54.25 35.3125 C55.3121875 35.36083984 56.374375 35.40917969 57.46875 35.45898438 C65.25578416 35.84540127 65.25578416 35.84540127 68.49389648 36.51806641 C71.22836374 37.04391525 73.73639122 37.11320452 76.51953125 37.09765625 C78.0519043 37.09282227 78.0519043 37.09282227 79.61523438 37.08789062 C81.19788086 37.07532227 81.19788086 37.07532227 82.8125 37.0625 C84.42415039 37.05573242 84.42415039 37.05573242 86.06835938 37.04882812 C88.71229683 37.03707729 91.35611952 37.02064787 94 37 C94 37.33 94 37.66 94 38 C91.62515638 38.16920005 89.25016522 38.33542863 86.875 38.5 C86.20984375 38.54769531 85.5446875 38.59539063 84.859375 38.64453125 C81.79427787 38.85488105 78.76837685 38.99780971 75.6953125 38.96875 C72.89918411 38.86404528 72.89918411 38.86404528 70 40 C69.30003906 39.69191406 68.60007812 39.38382813 67.87890625 39.06640625 C63.85882487 37.5772852 60.18274452 37.82443053 55.9375 37.9375 C54.34254182 37.97208945 52.74747867 38.00219224 51.15234375 38.02734375 C50.1003479 38.05429321 50.1003479 38.05429321 49.02709961 38.08178711 C47 38 47 38 44.97485352 37.47094727 C41.89335019 36.73609501 39.08249964 37.46649045 36 38 C39.33562767 42.51290803 41.33289301 44.68206814 47 46 C46.01 46.33 45.02 46.66 44 47 C46.0706428 50.43519517 46.0706428 50.43519517 49 53 C52.7174474 53.53255567 56.26996191 53.35275316 60 53 C56.77208445 55.1519437 55.71599191 55.20086443 52 55 C53.74262528 58.81862234 55.61617286 61.47813756 59 64 C64.23211019 64.76645358 69.23371278 64.42463396 74.49365234 64.09765625 C78.71924782 63.93301197 82.9092661 64.2195424 87.125 64.5 C87.91302002 64.54833984 88.70104004 64.59667969 89.51293945 64.64648438 C91.34226714 64.75944879 93.17118995 64.87894402 95 65 C95 65.33 95 65.66 95 66 C94.2793335 65.98952637 93.55866699 65.97905273 92.81616211 65.96826172 C89.52331079 65.92646285 86.2305155 65.90059812 82.9375 65.875 C81.2369043 65.84986328 81.2369043 65.84986328 79.50195312 65.82421875 C73.59960616 65.78980273 68.55932973 65.95055189 63 68 C64.27586673 70.69834209 64.27586673 70.69834209 67 73 C70.59415147 73.64508453 74.11296662 73.46989492 77.75 73.3125 C78.73355469 73.28994141 79.71710938 73.26738281 80.73046875 73.24414062 C83.1551947 73.18528805 85.57681983 73.10313431 88 73 C86 75 86 75 83.57421875 75.16015625 C82.62160156 75.12792969 81.66898437 75.09570312 80.6875 75.0625 C76.93516077 74.94475948 73.66064114 75.13984935 70 76 C75.63260767 81.63260767 87.5452656 80.59704138 95 81 C95 81.33 95 81.66 95 82 C88.73 82 82.46 82 76 82 C80.02148772 87.87294836 80.02148772 87.87294836 83.2199707 88.77294922 C83.94788818 88.78342285 84.67580566 88.79389648 85.42578125 88.8046875 C86.22177734 88.83046875 87.01777344 88.85625 87.83789062 88.8828125 C89.06282227 88.87894531 89.06282227 88.87894531 90.3125 88.875 C91.14845703 88.895625 91.98441406 88.91625 92.84570312 88.9375 C94.8967055 88.98438005 96.94846635 88.99573929 99 89 C99 89.33 99 89.66 99 90 C94.05 90.33 89.1 90.66 84 91 C84.99 92.65 85.98 94.3 87 96 C87 96.66 87 97.32 87 98 C89.31 98 91.62 98 94 98 C94.33 98.66 94.66 99.32 95 100 C93.02 100 91.04 100 89 100 C89.99 103.465 89.99 103.465 91 107 C90.41734375 106.66226563 89.8346875 106.32453125 89.234375 105.9765625 C79.42043723 100.63753346 68.50700417 98.41011667 57.5 101 C51.96014495 102.30294391 47.43587368 102.72107093 42.125 100.4375 C37.59038958 98.5347419 33.73760954 99.08976483 29 100 C29.495 98.515 29.495 98.515 30 97 C31.58294782 96.94562393 33.16644256 96.90703729 34.75 96.875 C35.63171875 96.85179688 36.5134375 96.82859375 37.421875 96.8046875 C40 97 40 97 41.91796875 97.99609375 C44.84624885 99.40804119 47.33181408 99.22792952 50.5625 99.1875 C51.69816406 99.18105469 52.83382812 99.17460938 54.00390625 99.16796875 C57.05175207 99.12865471 57.05175207 99.12865471 60 98 C65.7510492 97.65815442 71.33371064 98.01455837 77 99 C75.68 97.68 74.36 96.36 73 95 C73.33 94.34 73.66 93.68 74 93 C75.65 94.65 77.3 96.3 79 98 C79.99 97.67 80.98 97.34 82 97 C79.36898862 92.68514134 76.45680631 89.34204832 72.8359375 85.828125 C71.0716928 84.07138772 69.43693675 82.26093145 67.8125 80.375 C64.69665245 76.76424154 61.49017884 73.24871469 58.25 69.75 C57.73566406 69.19449463 57.22132812 68.63898926 56.69140625 68.06665039 C55.64316522 66.93480431 54.59482511 65.80304999 53.54638672 64.67138672 C47.84291822 58.50688635 42.16951003 52.31492125 36.5625 46.0625 C33.07551673 42.17629146 29.5465699 38.33167648 26 34.5 C20.95142183 29.0430047 15.94097472 23.55494199 11 18 C10.37738281 17.30648438 9.75476562 16.61296875 9.11328125 15.8984375 C5 11.23863636 5 11.23863636 5 9 C3.824375 8.62875 3.824375 8.62875 2.625 8.25 C-0.32317108 6.84610901 -0.9024777 5.99324263 -2 3 C-1.34 2.01 -0.68 1.02 0 0 Z " fill="#BFB182" transform="translate(11,5)"/>
<path d="M0 0 C4.35626671 4.29717006 8.55926327 8.72926944 12.75 13.1875 C13.81190552 14.31599365 13.81190552 14.31599365 14.89526367 15.46728516 C19.42807586 20.29543344 23.90680034 25.16208919 28.30078125 30.1171875 C29.95822806 32.0042829 29.95822806 32.0042829 31.73046875 33.6328125 C33 35 33 35 33 37 C34.23234375 36.66355469 35.4646875 36.32710937 36.734375 35.98046875 C42.6254408 34.67377777 48.26023984 34.96949034 54.25 35.3125 C55.3121875 35.36083984 56.374375 35.40917969 57.46875 35.45898438 C65.25578416 35.84540127 65.25578416 35.84540127 68.49389648 36.51806641 C71.22836374 37.04391525 73.73639122 37.11320452 76.51953125 37.09765625 C78.0519043 37.09282227 78.0519043 37.09282227 79.61523438 37.08789062 C81.19788086 37.07532227 81.19788086 37.07532227 82.8125 37.0625 C84.42415039 37.05573242 84.42415039 37.05573242 86.06835938 37.04882812 C88.71229683 37.03707729 91.35611952 37.02064787 94 37 C94 37.33 94 37.66 94 38 C91.62515638 38.16920005 89.25016522 38.33542863 86.875 38.5 C86.20984375 38.54769531 85.5446875 38.59539063 84.859375 38.64453125 C81.79427787 38.85488105 78.76837685 38.99780971 75.6953125 38.96875 C72.89918411 38.86404528 72.89918411 38.86404528 70 40 C69.30003906 39.69191406 68.60007812 39.38382813 67.87890625 39.06640625 C63.85882487 37.5772852 60.18274452 37.82443053 55.9375 37.9375 C54.34254182 37.97208945 52.74747867 38.00219224 51.15234375 38.02734375 C50.1003479 38.05429321 50.1003479 38.05429321 49.02709961 38.08178711 C47 38 47 38 44.97485352 37.47094727 C41.89335019 36.73609501 39.08249964 37.46649045 36 38 C39.33562767 42.51290803 41.33289301 44.68206814 47 46 C46.01 46.33 45.02 46.66 44 47 C45.2684375 48.3921875 45.2684375 48.3921875 46.5625 49.8125 C48.00390625 51.39453125 48.00390625 51.39453125 49 53 C48.67 53.99 48.34 54.98 48 56 C45.02674037 54.6737226 43.05920654 53.26966888 40.86328125 50.875 C40.2906958 50.2560083 39.71811035 49.6370166 39.12817383 48.99926758 C38.52900146 48.33950928 37.9298291 47.67975098 37.3125 47 C36.68819092 46.32155029 36.06388184 45.64310059 35.4206543 44.9440918 C31.3231244 40.48228995 27.25801696 35.9907517 23.22265625 31.47265625 C19.71198674 27.56711355 16.14265898 23.71574217 12.578125 19.859375 C5 11.45454545 5 11.45454545 5 9 C3.824375 8.62875 3.824375 8.62875 2.625 8.25 C-0.32317108 6.84610901 -0.9024777 5.99324263 -2 3 C-1.34 2.01 -0.68 1.02 0 0 Z " fill="#C8B67D" transform="translate(11,5)"/>
<path d="M0 0 C3.79891844 2.76284977 6.69037037 5.85157672 9.71484375 9.39453125 C12.73327993 12.83606447 15.86628321 16.16360501 19 19.5 C25.55421671 26.49185098 31.90078619 33.60701356 38 41 C37.34 41.99 36.68 42.98 36 44 C31.72671972 42.10076432 28.0499279 39.76578783 25.625 35.6875 C23.73717248 32.56532372 21.47622043 30.39258304 18.87109375 27.86328125 C16.47924002 25.48141438 14.30432335 22.94916992 12.109375 20.38671875 C10.40201151 18.45486858 8.66544417 16.57590521 6.890625 14.70703125 C6.34301514 14.12711426 5.79540527 13.54719727 5.23120117 12.94970703 C4.13059017 11.78742317 3.02408196 10.63069152 1.91137695 9.47998047 C-2 5.33368411 -2 5.33368411 -2 2 C-1.34 1.34 -0.68 0.68 0 0 Z " fill="#C3A862" transform="translate(56,60)"/>
<path d="M0 0 C5.03743443 4.17644436 9.57840322 8.55678973 14 13.375 C14.91519409 14.3635498 14.91519409 14.3635498 15.84887695 15.37207031 C19.5219376 19.35191472 23.15149333 23.36481013 26.66796875 27.484375 C28.05115332 29.05820378 29.50339458 30.53429793 31 32 C30.505 32.99 30.505 32.99 30 34 C29.44151367 33.66572998 28.88302734 33.33145996 28.30761719 32.98706055 C25.58600309 31.82291689 24.00613855 31.90418116 21.078125 32.20703125 C20.13453125 32.29919922 19.1909375 32.39136719 18.21875 32.48632812 C17.2390625 32.59396484 16.259375 32.70160156 15.25 32.8125 C14.28578125 32.90853516 13.3215625 33.00457031 12.328125 33.10351562 C6.87480898 33.65551568 1.43587614 34.29797334 -4 35 C0.16341655 30.83658345 6.31876459 31.69700061 11.89257812 31.48242188 C16.54996365 31.24889166 20.55877039 30.43396564 25 29 C23.72273329 26.75076361 23.72273329 26.75076361 21 25 C17.22317539 24.62694222 13.52544291 24.94815621 9.75 25.25 C8.203125 25.34861328 8.203125 25.34861328 6.625 25.44921875 C4.08145555 25.61407811 1.54084512 25.79830535 -1 26 C-1 25.34 -1 24.68 -1 24 C5.32126362 23.16511613 11.64780958 22.54881057 18 22 C16.42151812 19.3829478 16.42151812 19.3829478 14 17 C10.96339709 16.47031909 10.96339709 16.47031909 7.6875 16.8125 C0.53154153 17.12432389 0.53154153 17.12432389 -2.875 15.875 C-6.867027 14.75723244 -9.1062582 15.7741924 -13 17 C-15.9375 16.625 -15.9375 16.625 -18 16 C-14.4366425 13.62442834 -12.30207814 13.55250925 -8.0625 13.25 C-6.22365234 13.10304688 -6.22365234 13.10304688 -4.34765625 12.953125 C-1.03786036 12.99946987 0.20545768 13.45356482 3 15 C6.68203915 14.68873287 6.68203915 14.68873287 10 14 C9.08216876 11.3549963 9.08216876 11.3549963 7 9 C4.20625708 8.53162101 1.85778964 8.76575495 -1 9 C-1 8.34 -1 7.68 -1 7 C0.65 6.67 2.3 6.34 4 6 C3.34 5.38125 2.68 4.7625 2 4.125 C0 2 0 2 0 0 Z " fill="#9F8B62" transform="translate(52,63)"/>
<path d="M0 0 C0.86625 0.86625 1.7325 1.7325 2.625 2.625 C4.21211101 4.04802099 4.21211101 4.04802099 6 5 C9.31950927 4.61657799 9.31950927 4.61657799 12 3 C12.33 2.34 12.66 1.68 13 1 C13.495 2.98 13.495 2.98 14 5 C16.31 5 18.62 5 21 5 C21.495 5.99 21.495 5.99 22 7 C20.02 7 18.04 7 16 7 C16.66 9.31 17.32 11.62 18 14 C17.12601563 13.49339844 17.12601563 13.49339844 16.234375 12.9765625 C6.42043723 7.63753346 -4.49299583 5.41011667 -15.5 8 C-21.03985505 9.30294391 -25.56412632 9.72107093 -30.875 7.4375 C-35.40961042 5.5347419 -39.26239046 6.08976483 -44 7 C-43.67 6.01 -43.34 5.02 -43 4 C-41.41705218 3.94562393 -39.83355744 3.90703729 -38.25 3.875 C-37.36828125 3.85179688 -36.4865625 3.82859375 -35.578125 3.8046875 C-33 4 -33 4 -31.08203125 4.99609375 C-28.15375115 6.40804119 -25.66818592 6.22792952 -22.4375 6.1875 C-21.30183594 6.18105469 -20.16617188 6.17460938 -18.99609375 6.16796875 C-15.94824793 6.12865471 -15.94824793 6.12865471 -13 5 C-7.2489508 4.65815442 -1.66628936 5.01455837 4 6 C3.34 5.38125 2.68 4.7625 2 4.125 C0 2 0 2 0 0 Z " fill="#7F7F7F" transform="translate(84,98)"/>
<path d="M0 0 C0.99 0.33 1.98 0.66 3 1 C2.67 2.98 2.34 4.96 2 7 C3.98 8.32 5.96 9.64 8 11 C7.01 11.99 6.02 12.98 5 14 C6.65091778 18.29238623 9.73754566 20.8793915 13 24 C12.67 24.66 12.34 25.32 12 26 C9.93097723 23.98550492 7.86989112 21.96381941 5.8125 19.9375 C5.23435547 19.37611328 4.65621094 18.81472656 4.06054688 18.23632812 C0.20130205 14.42069059 -2.95834922 10.49660237 -6 6 C-4.02 4.02 -2.04 2.04 0 0 Z " fill="#958168" transform="translate(8,3)"/>
<path d="M0 0 C0.68449219 0.71929687 1.36898437 1.43859375 2.07421875 2.1796875 C2.77160156 2.90414062 3.46898437 3.62859375 4.1875 4.375 C4.96673828 5.20644531 4.96673828 5.20644531 5.76171875 6.0546875 C5.43171875 6.7146875 5.10171875 7.3746875 4.76171875 8.0546875 C4.20323242 7.72041748 3.64474609 7.38614746 3.06933594 7.04174805 C0.34772184 5.87760439 -1.2321427 5.95886866 -4.16015625 6.26171875 C-5.10375 6.35388672 -6.04734375 6.44605469 -7.01953125 6.54101562 C-7.99921875 6.64865234 -8.97890625 6.75628906 -9.98828125 6.8671875 C-10.9525 6.96322266 -11.91671875 7.05925781 -12.91015625 7.15820312 C-18.36347227 7.71020318 -23.80240511 8.35266084 -29.23828125 9.0546875 C-25.0748647 4.89127095 -18.91951666 5.75168811 -13.34570312 5.53710938 C-8.6883176 5.30357916 -4.67951086 4.48865314 -0.23828125 3.0546875 C-1.51554796 0.80545111 -1.51554796 0.80545111 -4.23828125 -0.9453125 C-8.01510586 -1.31837028 -11.71283834 -0.99715629 -15.48828125 -0.6953125 C-17.03515625 -0.59669922 -17.03515625 -0.59669922 -18.61328125 -0.49609375 C-21.1568257 -0.33123439 -23.69743613 -0.14700715 -26.23828125 0.0546875 C-26.23828125 -0.6053125 -26.23828125 -1.2653125 -26.23828125 -1.9453125 C-23.57300145 -2.29733059 -20.90771029 -2.62732409 -18.23828125 -2.9453125 C-17.31273437 -3.06390625 -16.3871875 -3.1825 -15.43359375 -3.3046875 C-14.48226562 -3.41296875 -13.5309375 -3.52125 -12.55078125 -3.6328125 C-11.66003906 -3.73980469 -10.76929687 -3.84679687 -9.8515625 -3.95703125 C-5.66004121 -3.93823519 -3.14497785 -2.73333153 0 0 Z " fill="#8D887D" transform="translate(77.23828125,88.9453125)"/>
<path d="M0 0 C0.66 1.32 1.32 2.64 2 4 C4.31 4 6.62 4 9 4 C9.33 4.66 9.66 5.32 10 6 C8.02 6 6.04 6 4 6 C4.66 8.31 5.32 10.62 6 13 C2.17647894 11.4422692 -0.29205593 9.08404742 -3 6 C-3 5.01 -3 4.02 -3 3 C-2.01 2.67 -1.02 2.34 0 2 C0 1.34 0 0.68 0 0 Z " fill="#A0927C" transform="translate(96,99)"/>
<path d="M0 0 C2.57375541 1.18825717 4.06031445 0.99859806 6.83984375 0.58984375 C8.03867187 0.42355469 8.03867187 0.42355469 9.26171875 0.25390625 C9.865 0.15851563 10.46828125 0.063125 11.08984375 -0.03515625 C11.41984375 0.62484375 11.74984375 1.28484375 12.08984375 1.96484375 C6.86090017 3.70782494 1.69124022 3.4705479 -3.47265625 1.83984375 C-7.65825628 0.77441829 -9.85212352 1.68731493 -13.91015625 2.96484375 C-16.84765625 2.58984375 -16.84765625 2.58984375 -18.91015625 1.96484375 C-14.08578701 -1.25140241 -5.34213683 -2.89502302 0 0 Z " fill="#9B9B9B" transform="translate(52.91015625,77.03515625)"/>
<path d="M0 0 C1.58294782 -0.05437607 3.16644256 -0.09296271 4.75 -0.125 C5.63171875 -0.14820312 6.5134375 -0.17140625 7.421875 -0.1953125 C10.17132652 0.01297928 11.58225378 0.75334961 14 2 C16.58532701 2.45064632 16.58532701 2.45064632 19.25 2.625 C20.14203125 2.69976562 21.0340625 2.77453125 21.953125 2.8515625 C22.96632813 2.92503906 22.96632813 2.92503906 24 3 C23.67 3.66 23.34 4.32 23 5 C18.82503667 5.26093521 15.96702146 5.13477856 12.125 3.4375 C7.59038958 1.5347419 3.73760954 2.08976483 -1 3 C-0.67 2.01 -0.34 1.02 0 0 Z " fill="#959595" transform="translate(41,102)"/>
<path d="M0 0 C19.96810934 0.96355353 19.96810934 0.96355353 29 2 C29 2.33 29 2.66 29 3 C25.10422976 3.05821935 21.20857198 3.0936703 17.3125 3.125 C16.20970703 3.14175781 15.10691406 3.15851562 13.97070312 3.17578125 C12.90400391 3.18222656 11.83730469 3.18867187 10.73828125 3.1953125 C9.26935425 3.21102295 9.26935425 3.21102295 7.77075195 3.22705078 C4.82887228 2.98597685 2.66762274 2.23055542 0 1 C0 0.67 0 0.34 0 0 Z " fill="#8E8E8E" transform="translate(72,58)"/>
<path d="M0 0 C2.64752004 2.57784846 4.94432065 4.91648098 7 8 C5.3125 8.75 5.3125 8.75 3 9 C0.25 7.0625 0.25 7.0625 -2 5 C-1.34 3.35 -0.68 1.7 0 0 Z " fill="#C8CCD3" transform="translate(11,5)"/>
<path d="M0 0 C2 0 2 0 4.5 2.375 C5.325 3.24125 6.15 4.1075 7 5 C7.66 5.66 8.32 6.32 9 7 C6.525 8.485 6.525 8.485 4 10 C3.731875 9.38125 3.46375 8.7625 3.1875 8.125 C2.04443152 5.7004767 2.04443152 5.7004767 -1 4 C-0.67 2.68 -0.34 1.36 0 0 Z " fill="#A7A4A2" transform="translate(7,8)"/>
<path d="M0 0 C0 0.99 0 1.98 0 3 C-0.886875 2.814375 -1.77375 2.62875 -2.6875 2.4375 C-5.89906332 1.8247319 -5.89906332 1.8247319 -8.625 2.5625 C-11.48107843 3.08861971 -12.58857883 2.51830222 -15 1 C-13.66961551 0.6550855 -12.33542939 0.32483418 -11 0 C-10.21625 -0.20625 -9.4325 -0.4125 -8.625 -0.625 C-5.53963899 -1.06576586 -3.03508131 -0.63524958 0 0 Z " fill="#929291" transform="translate(81,25)"/>
<path d="M0 0 C0.845625 0.7425 1.69125 1.485 2.5625 2.25 C4.86833603 4.18800028 7.17139636 5.74144119 9.8125 7.1875 C13 9 13 9 14 11 C8.11497889 9.67587025 4.03910791 6.3466542 0 2 C0 1.34 0 0.68 0 0 Z " fill="#917C59" transform="translate(84,98)"/>
<path d="M0 0 C0.99 0.33 1.98 0.66 3 1 C2.67 2.32 2.34 3.64 2 5 C1.01 5 0.02 5 -1 5 C-1.33 5.66 -1.66 6.32 -2 7 C-2.66 6.67 -3.32 6.34 -4 6 C-2.84826645 3.53199953 -1.95216435 1.95216435 0 0 Z " fill="#B58283" transform="translate(8,3)"/>
<path d="M0 0 C1.1055189 0.93590504 2.20935453 1.87379858 3.3125 2.8125 C3.92738281 3.33457031 4.54226562 3.85664062 5.17578125 4.39453125 C6.85424679 5.87172469 8.43882034 7.40039131 10 9 C9.67 9.66 9.34 10.32 9 11 C3.79082581 9.02410634 2.34696657 4.71399268 0 0 Z " fill="#9B8554" transform="translate(42,52)"/>
<path d="M0 0 C0.99 0.33 1.98 0.66 3 1 C3.33 2.65 3.66 4.3 4 6 C2.68 5.34 1.36 4.68 0 4 C0 2.68 0 1.36 0 0 Z " fill="#C1C3C5" transform="translate(10,7)"/>
<path d="" fill="#FFFFFF" transform="translate(0,0)"/>
<path d="" fill="#FFFFFF" transform="translate(0,0)"/>
<path d="" fill="#FFFFFF" transform="translate(0,0)"/>
</svg>
